<svg width="32" height="32" viewBox="0 0 32 32" fill="none" xmlns="http://www.w3.org/2000/svg">
<rect width="32" height="32" rx="16" fill="#EFE1D1"/>
<path d="M16.001 13C15.2053 13 14.4423 13.3161 13.8797 13.8787C13.317 14.4413 13.001 15.2044 13.001 16C13.001 16.7956 13.317 17.5587 13.8797 18.1213C14.4423 18.6839 15.2053 19 16.001 19C16.7966 19 17.5597 18.6839 18.1223 18.1213C18.6849 17.5587 19.001 16.7956 19.001 16C19.001 15.2044 18.6849 14.4413 18.1223 13.8787C17.5597 13.3161 16.7966 13 16.001 13ZM16.001 11C17.3271 11 18.5988 11.5268 19.5365 12.4645C20.4742 13.4021 21.001 14.6739 21.001 16C21.001 17.3261 20.4742 18.5979 19.5365 19.5355C18.5988 20.4732 17.3271 21 16.001 21C14.6749 21 13.4031 20.4732 12.4654 19.5355C11.5278 18.5979 11.001 17.3261 11.001 16C11.001 14.6739 11.5278 13.4021 12.4654 12.4645C13.4031 11.5268 14.6749 11 16.001 11ZM22.501 10.75C22.501 11.0815 22.3693 11.3995 22.1349 11.6339C21.9004 11.8683 21.5825 12 21.251 12C20.9195 12 20.6015 11.8683 20.3671 11.6339C20.1327 11.3995 20.001 11.0815 20.001 10.75C20.001 10.4185 20.1327 10.1005 20.3671 9.86612C20.6015 9.6317 20.9195 9.5 21.251 9.5C21.5825 9.5 21.9004 9.6317 22.1349 9.86612C22.3693 10.1005 22.501 10.4185 22.501 10.75ZM16.001 8C13.527 8 13.123 8.007 11.972 8.058C11.188 8.095 10.662 8.2 10.174 8.39C9.76559 8.53994 9.39639 8.78026 9.09398 9.093C8.78098 9.3954 8.54033 9.76458 8.38998 10.173C8.19998 10.663 8.09498 11.188 8.05898 11.971C8.00698 13.075 7.99998 13.461 7.99998 16C7.99998 18.475 8.00698 18.878 8.05798 20.029C8.09498 20.812 8.19998 21.339 8.38898 21.826C8.55898 22.261 8.75898 22.574 9.09098 22.906C9.42798 23.242 9.74098 23.443 10.171 23.609C10.665 23.8 11.191 23.906 11.971 23.942C13.075 23.994 13.461 24 16 24C18.475 24 18.878 23.993 20.029 23.942C20.811 23.905 21.337 23.8 21.826 23.611C22.234 23.4603 22.603 23.2201 22.906 22.908C23.243 22.572 23.444 22.259 23.61 21.828C23.8 21.336 23.906 20.81 23.942 20.028C23.994 18.925 24 18.538 24 16C24 13.526 23.993 13.122 23.942 11.971C23.905 11.189 23.799 10.661 23.61 10.173C23.4592 9.76502 23.219 9.39598 22.907 9.093C22.6047 8.77985 22.2355 8.53917 21.827 8.389C21.337 8.199 20.811 8.094 20.029 8.058C18.926 8.006 18.541 8 16.001 8ZM16.001 6C18.718 6 19.057 6.01 20.124 6.06C21.188 6.11 21.914 6.277 22.551 6.525C23.211 6.779 23.767 7.123 24.323 7.678C24.8315 8.1779 25.2249 8.78259 25.476 9.45C25.723 10.087 25.891 10.813 25.941 11.878C25.988 12.944 26.001 13.283 26.001 16C26.001 18.717 25.991 19.056 25.941 20.122C25.891 21.187 25.723 21.912 25.476 22.55C25.2256 23.2178 24.8321 23.8226 24.323 24.322C23.8229 24.8303 23.2183 25.2238 22.551 25.475C21.914 25.722 21.188 25.89 20.124 25.94C19.057 25.987 18.718 26 16.001 26C13.284 26 12.945 25.99 11.878 25.94C10.814 25.89 10.089 25.722 9.45098 25.475C8.7833 25.2245 8.1785 24.8309 7.67898 24.322C7.17041 23.8222 6.77694 23.2175 6.52598 22.55C6.27798 21.913 6.11098 21.187 6.06098 20.122C6.01298 19.056 6.00098 18.717 6.00098 16C6.00098 13.283 6.01098 12.944 6.06098 11.878C6.11098 10.812 6.27798 10.088 6.52598 9.45C6.77621 8.78218 7.16978 8.17732 7.67898 7.678C8.17865 7.16923 8.78341 6.77573 9.45098 6.525C10.088 6.277 10.813 6.11 11.878 6.06C12.945 6.013 13.284 6 16.001 6Z" fill="#0D090C"/>
</svg>
