<svg width="32" height="32" viewBox="0 0 32 32" fill="none" xmlns="http://www.w3.org/2000/svg">
<rect width="32" height="32" rx="16" fill="#EFE1D1"/>
<path d="M14.67 19.0972C14.164 21.8232 13.548 24.4372 11.72 25.8022C11.157 21.6822 12.549 18.5872 13.195 15.3022C12.093 13.3922 13.328 9.54719 15.652 10.4942C18.512 11.6602 13.175 17.5962 16.758 18.3382C20.499 19.1122 22.027 11.6552 19.707 9.22919C16.355 5.72819 9.95002 9.15019 10.738 14.1632C10.93 15.3892 12.159 15.7612 11.229 17.4532C9.08402 16.9622 8.44402 15.2202 8.52702 12.8972C8.65902 9.09719 11.844 6.43519 15.038 6.06719C19.078 5.60119 22.869 7.59419 23.392 11.5072C23.982 15.9232 21.569 20.7072 17.25 20.3622C16.079 20.2692 15.587 19.6722 14.67 19.0972Z" fill="#0D090C"/>
</svg>
