<svg width="32" height="32" viewBox="0 0 32 32" fill="none" xmlns="http://www.w3.org/2000/svg">
<rect width="32" height="32" rx="16" fill="#EFE1D1"/>
<path d="M26.46 10C25.69 10.35 24.86 10.58 24 10.69C24.88 10.16 25.56 9.32 25.88 8.31C25.05 8.81 24.13 9.16 23.16 9.36C22.37 8.5 21.26 8 20 8C17.65 8 15.73 9.92 15.73 12.29C15.73 12.63 15.77 12.96 15.84 13.27C12.28 13.09 9.11004 11.38 7.00004 8.79C6.63004 9.42 6.42004 10.16 6.42004 10.94C6.42004 12.43 7.17004 13.75 8.33004 14.5C7.62004 14.5 6.96004 14.3 6.38004 14V14.03C6.38004 16.11 7.86004 17.85 9.82004 18.24C9.19077 18.4122 8.53013 18.4362 7.89004 18.31C8.16165 19.1625 8.69358 19.9084 9.41106 20.4429C10.1285 20.9775 10.9955 21.2737 11.89 21.29C10.3737 22.4904 8.49404 23.1393 6.56004 23.13C6.22004 23.13 5.88004 23.11 5.54004 23.07C7.44004 24.29 9.70004 25 12.12 25C20 25 24.33 18.46 24.33 12.79C24.33 12.6 24.33 12.42 24.32 12.23C25.16 11.63 25.88 10.87 26.46 10Z" fill="#0D090C"/>
</svg>
