<svg width="48" height="48" viewBox="0 0 48 48" fill="none" xmlns="http://www.w3.org/2000/svg">
<path d="M7.8 38L4.1 25.15C3.96667 24.75 3.99167 24.3583 4.175 23.975C4.35833 23.5917 4.65 23.3333 5.05 23.2L8 22.2V11C8 10.1667 8.29167 9.46667 8.875 8.9C9.45833 8.33333 10.1667 8.03333 11 8H18.5V2H29.5V8H37C37.8333 8 38.5417 8.29167 39.125 8.875C39.7083 9.45833 40 10.1667 40 11V22.25L43 23.2C43.3667 23.3333 43.6417 23.5833 43.825 23.95C44.0083 24.3167 44.0333 24.7 43.9 25.1L40.2 38C38.6 37.8333 37.1083 37.35 35.725 36.55C34.3417 35.75 33.1167 34.8 32.05 33.7C30.9833 34.9 29.775 35.9167 28.425 36.75C27.075 37.5833 25.6 38 24 38C22.4 38 20.925 37.5833 19.575 36.75C18.225 35.9167 17.0167 34.9 15.95 33.7C14.8833 34.8 13.6583 35.75 12.275 36.55C10.8917 37.35 9.4 37.8333 7.8 38ZM4 46V43H8C9.4 43 10.7833 42.7833 12.15 42.35C13.5167 41.9167 14.8 41.3 16 40.5C17.2 41.3 18.4833 41.9 19.85 42.3C21.2167 42.7 22.6 42.9 24 42.9C25.4 42.9 26.7833 42.7 28.15 42.3C29.5167 41.9 30.8 41.3 32 40.5C33.2 41.3 34.4833 41.9167 35.85 42.35C37.2167 42.7833 38.6 43 40 43H44V46H40C38.6333 46 37.2833 45.825 35.95 45.475C34.6167 45.125 33.3 44.6167 32 43.95C30.7 44.6167 29.3667 45.125 28 45.475C26.6333 45.825 25.3 46 24 46C22.7 46 21.3667 45.825 20 45.475C18.6333 45.125 17.3 44.6167 16 43.95C14.7 44.6167 13.3833 45.125 12.05 45.475C10.7167 45.825 9.36667 46 8 46H4ZM11 21.25L24 17.05L37 21.3V11H11V21.25Z" fill="#EFE1D1"/>
</svg>
