<svg width="20" height="20" viewBox="0 0 20 20" fill="none" xmlns="http://www.w3.org/2000/svg">
<path d="M6.66667 11.6667C6.43056 11.6667 6.2325 11.5867 6.0725 11.4267C5.9125 11.2667 5.83278 11.0689 5.83334 10.8333C5.83334 10.5972 5.91334 10.3992 6.07334 10.2392C6.23334 10.0792 6.43111 9.99944 6.66667 9.99999C6.90278 9.99999 7.10084 10.08 7.26084 10.24C7.42084 10.4 7.50056 10.5978 7.5 10.8333C7.5 11.0694 7.42 11.2675 7.26 11.4275C7.1 11.5875 6.90222 11.6672 6.66667 11.6667ZM10 11.6667C9.76389 11.6667 9.56583 11.5867 9.40584 11.4267C9.24583 11.2667 9.16611 11.0689 9.16667 10.8333C9.16667 10.5972 9.24667 10.3992 9.40667 10.2392C9.56667 10.0792 9.76445 9.99944 10 9.99999C10.2361 9.99999 10.4342 10.08 10.5942 10.24C10.7542 10.4 10.8339 10.5978 10.8333 10.8333C10.8333 11.0694 10.7533 11.2675 10.5933 11.4275C10.4333 11.5875 10.2356 11.6672 10 11.6667ZM13.3333 11.6667C13.0972 11.6667 12.8992 11.5867 12.7392 11.4267C12.5792 11.2667 12.4994 11.0689 12.5 10.8333C12.5 10.5972 12.58 10.3992 12.74 10.2392C12.9 10.0792 13.0978 9.99944 13.3333 9.99999C13.5694 9.99999 13.7675 10.08 13.9275 10.24C14.0875 10.4 14.1672 10.5978 14.1667 10.8333C14.1667 11.0694 14.0867 11.2675 13.9267 11.4275C13.7667 11.5875 13.5689 11.6672 13.3333 11.6667ZM4.16667 18.3333C3.70833 18.3333 3.31583 18.17 2.98917 17.8433C2.6625 17.5167 2.49945 17.1244 2.5 16.6667V4.99999C2.5 4.54166 2.66333 4.14916 2.99 3.82249C3.31667 3.49582 3.70889 3.33277 4.16667 3.33332H5V2.47916C5 2.24305 5.08 2.0486 5.24 1.89582C5.4 1.74305 5.59778 1.66666 5.83334 1.66666C6.06945 1.66666 6.2675 1.74666 6.4275 1.90666C6.5875 2.06666 6.66722 2.26443 6.66667 2.49999V3.33332H13.3333V2.47916C13.3333 2.24305 13.4133 2.0486 13.5733 1.89582C13.7333 1.74305 13.9311 1.66666 14.1667 1.66666C14.4028 1.66666 14.6008 1.74666 14.7608 1.90666C14.9208 2.06666 15.0006 2.26443 15 2.49999V3.33332H15.8333C16.2917 3.33332 16.6842 3.49666 17.0108 3.82332C17.3375 4.14999 17.5006 4.54221 17.5 4.99999V16.6667C17.5 17.125 17.3367 17.5175 17.01 17.8442C16.6833 18.1708 16.2911 18.3339 15.8333 18.3333H4.16667ZM4.16667 16.6667H15.8333V8.33332H4.16667V16.6667ZM4.16667 6.66666H15.8333V4.99999H4.16667V6.66666Z" fill="#0D090C"/>
</svg>
