<svg width="48" height="48" viewBox="0 0 48 48" fill="none" xmlns="http://www.w3.org/2000/svg">
<path d="M10 37.8V40.5C10 40.925 9.85625 41.2813 9.56875 41.5688C9.28125 41.8563 8.925 42 8.5 42H7.5C7.075 42 6.71875 41.8563 6.43125 41.5688C6.14375 41.2813 6 40.925 6 40.5V24.3L10.25 11.5C10.4167 11.0333 10.6917 10.6667 11.075 10.4C11.4583 10.1333 11.9 10 12.4 10H35.6C36.1 10 36.5417 10.1333 36.925 10.4C37.3083 10.6667 37.5833 11.0333 37.75 11.5L42 24.3V40.5C42 40.925 41.8563 41.2813 41.5688 41.5688C41.2813 41.8563 40.925 42 40.5 42H39.45C39.025 42 38.6688 41.8563 38.3813 41.5688C38.0938 41.2813 37.95 40.925 37.95 40.5V37.8H10ZM10.15 21.3H37.85L35.1 13H12.9L10.15 21.3ZM14.2883 32.3C15.0628 32.3 15.7083 32.0375 16.225 31.5125C16.7417 30.9875 17 30.35 17 29.6C17 28.8222 16.7375 28.1611 16.2125 27.6167C15.6875 27.0722 15.05 26.8 14.3 26.8C13.5222 26.8 12.8611 27.0711 12.3166 27.6133C11.7722 28.1554 11.5 28.8137 11.5 29.5883C11.5 30.3628 11.7711 31.0083 12.3133 31.525C12.8554 32.0417 13.5137 32.3 14.2883 32.3ZM33.75 32.3C34.5278 32.3 35.1889 32.0375 35.7334 31.5125C36.2778 30.9875 36.55 30.35 36.55 29.6C36.55 28.8222 36.2789 28.1611 35.7367 27.6167C35.1946 27.0722 34.5363 26.8 33.7617 26.8C32.9872 26.8 32.3417 27.0711 31.825 27.6133C31.3083 28.1554 31.05 28.8137 31.05 29.5883C31.05 30.3628 31.3125 31.0083 31.8375 31.525C32.3625 32.0417 33 32.3 33.75 32.3Z" fill="#EFE1D1"/>
</svg>
