<svg width="16" height="16" viewBox="0 0 16 16" fill="none" xmlns="http://www.w3.org/2000/svg">
<path fill-rule="evenodd" clip-rule="evenodd" d="M4.64592 14.3541C4.59935 14.3076 4.56241 14.2525 4.5372 14.1917C4.512 14.131 4.49902 14.0659 4.49902 14.0001C4.49902 13.9343 4.512 13.8692 4.5372 13.8084C4.56241 13.7477 4.59935 13.6925 4.64592 13.6461L10.2929 8.00008L4.64592 2.35408C4.59943 2.3076 4.56255 2.25241 4.53739 2.19167C4.51223 2.13093 4.49929 2.06583 4.49929 2.00008C4.49929 1.93434 4.51223 1.86924 4.53739 1.8085C4.56255 1.74776 4.59943 1.69257 4.64592 1.64608C4.6924 1.5996 4.74759 1.56272 4.80833 1.53756C4.86907 1.5124 4.93417 1.49945 4.99992 1.49945C5.06566 1.49945 5.13076 1.5124 5.1915 1.53756C5.25224 1.56272 5.30743 1.5996 5.35392 1.64608L11.3539 7.64608C11.4005 7.69253 11.4374 7.7477 11.4626 7.80845C11.4878 7.86919 11.5008 7.93432 11.5008 8.00008C11.5008 8.06585 11.4878 8.13097 11.4626 8.19172C11.4374 8.25246 11.4005 8.30764 11.3539 8.35408L5.35392 14.3541C5.30747 14.4006 5.2523 14.4376 5.19155 14.4628C5.13081 14.488 5.06568 14.501 4.99992 14.501C4.93415 14.501 4.86903 14.488 4.80828 14.4628C4.74754 14.4376 4.69236 14.4006 4.64592 14.3541Z" fill="#F7F0E8"/>
</svg>
