<svg width="48" height="48" viewBox="0 0 48 48" fill="none" xmlns="http://www.w3.org/2000/svg">
<path d="M7 40C6.2 40 5.5 39.7 4.9 39.1C4.3 38.5 4 37.8 4 37V11C4 10.2 4.3 9.5 4.9 8.9C5.5 8.3 6.2 8 7 8H41C41.8 8 42.5 8.3 43.1 8.9C43.7 9.5 44 10.2 44 11V25.9C43.1333 25.4333 42.2167 25.2667 41.25 25.4C40.2833 25.5333 39.4333 25.9667 38.7 26.7L29.9 35.45L26.75 32.3C25.8833 31.4333 24.8167 31 23.55 31C22.2833 31 21.2167 31.4333 20.35 32.3C19.4833 33.1667 19.05 34.2333 19.05 35.5C19.05 36.7667 19.4833 37.8333 20.35 38.7L21.65 40H7ZM7 16V22.95H41V16H7ZM29.9 39.7L40.8 28.8C41.1 28.5 41.4583 28.3583 41.875 28.375C42.2917 28.3917 42.65 28.55 42.95 28.85C43.2167 29.15 43.3583 29.5 43.375 29.9C43.3917 30.3 43.25 30.65 42.95 30.95L30.95 42.95C30.65 43.25 30.3 43.4 29.9 43.4C29.5 43.4 29.15 43.25 28.85 42.95L22.45 36.55C22.15 36.25 22.0083 35.8917 22.025 35.475C22.0417 35.0583 22.2 34.7 22.5 34.4C22.8 34.1 23.1583 33.95 23.575 33.95C23.9917 33.95 24.35 34.1 24.65 34.4L29.9 39.7Z" fill="#3F2E3E"/>
</svg>
