<svg width="48" height="48" viewBox="0 0 48 48" fill="none" xmlns="http://www.w3.org/2000/svg">
<path d="M21 36H7C6.2 36 5.5 35.7 4.9 35.1C4.3 34.5 4 33.8 4 33V9C4 8.2 4.3 7.5 4.9 6.9C5.5 6.3 6.2 6 7 6H41C41.8 6 42.5 6.3 43.1 6.9C43.7 7.5 44 8.2 44 9V33C44 33.8 43.7 34.5 43.1 35.1C42.5 35.7 41.8 36 41 36H27L30.95 40C30.9833 40.0333 31.0667 40.2333 31.2 40.6V41.15C31.2 41.4167 31.125 41.625 30.975 41.775C30.825 41.925 30.6167 42 30.35 42H17.4C17.2333 42 17.0917 41.9417 16.975 41.825C16.8583 41.7083 16.8 41.5667 16.8 41.4V40.5C16.8 40.4667 16.8667 40.3167 17 40.05L21 36Z" fill="#3F2E3E"/>
</svg>
