<svg width="48" height="48" viewBox="0 0 48 48" fill="none" xmlns="http://www.w3.org/2000/svg">
<path d="M10 37.8V40C10 40.5556 9.80442 41.0278 9.41325 41.4167C9.02205 41.8056 8.54705 42 7.98825 42C7.42942 42 6.95833 41.8056 6.575 41.4167C6.19167 41.0278 6 40.5556 6 40V24.8C6 24.6444 6.00833 24.4889 6.025 24.3333C6.04167 24.1778 6.08333 24.0167 6.15 23.85L10.05 12.05C10.25 11.4167 10.6125 10.9167 11.1375 10.55C11.6625 10.1833 12.25 10 12.9 10H35.1C35.75 10 36.3375 10.1833 36.8625 10.55C37.3875 10.9167 37.75 11.4167 37.95 12.05L41.85 23.85C41.9167 24.0167 41.9583 24.1778 41.975 24.3333C41.9917 24.4889 42 24.6444 42 24.8V40C42 40.5556 41.8044 41.0278 41.4133 41.4167C41.0221 41.8056 40.5471 42 39.9883 42C39.4294 42 38.95 41.8007 38.55 41.4021C38.15 41.0035 37.95 40.5194 37.95 39.95V37.8H10ZM10.15 21.3H37.85L35.1 13H12.9L10.15 21.3ZM14.2883 32.3C15.0628 32.3 15.7083 32.0375 16.225 31.5125C16.7417 30.9875 17 30.35 17 29.6C17 28.8222 16.7375 28.1611 16.2125 27.6167C15.6875 27.0722 15.05 26.8 14.3 26.8C13.5222 26.8 12.8611 27.0711 12.3166 27.6133C11.7722 28.1554 11.5 28.8137 11.5 29.5883C11.5 30.3628 11.7711 31.0083 12.3133 31.525C12.8554 32.0417 13.5137 32.3 14.2883 32.3ZM33.75 32.3C34.5278 32.3 35.1889 32.0375 35.7334 31.5125C36.2778 30.9875 36.55 30.35 36.55 29.6C36.55 28.8222 36.2789 28.1611 35.7367 27.6167C35.1946 27.0722 34.5363 26.8 33.7617 26.8C32.9872 26.8 32.3417 27.0711 31.825 27.6133C31.3083 28.1554 31.05 28.8137 31.05 29.5883C31.05 30.3628 31.3125 31.0083 31.8375 31.525C32.3625 32.0417 33 32.3 33.75 32.3Z" fill="#3E2D3D"/>
</svg>
