<svg width="48" height="48" viewBox="0 0 48 48" fill="none" xmlns="http://www.w3.org/2000/svg">
<path d="M26.904 10.3C25.9013 10.3 25.0417 9.943 24.325 9.229C23.6083 8.51497 23.25 7.65663 23.25 6.654C23.25 5.65133 23.607 4.79167 24.321 4.075C25.035 3.35833 25.8934 3 26.896 3C27.8987 3 28.7583 3.357 29.475 4.071C30.1917 4.78503 30.55 5.64337 30.55 6.646C30.55 7.64867 30.193 8.50833 29.479 9.225C28.765 9.94167 27.9066 10.3 26.904 10.3ZM28.2413 46C27.8138 46 27.4583 45.8563 27.175 45.5688C26.8917 45.2813 26.75 44.925 26.75 44.5V35.05L22.5 30.3L22.05 37.1C22.0208 37.3941 21.9552 37.676 21.8531 37.9456C21.751 38.2152 21.6167 38.4667 21.45 38.7L16.9 44.8C16.6333 45.1333 16.3029 45.3333 15.9087 45.4C15.5145 45.4667 15.1449 45.3667 14.8 45.1C14.4667 44.8333 14.2667 44.5029 14.2 44.1087C14.1333 43.7145 14.2333 43.3449 14.5 43L18.8 37.25L18.4 27.7C18.3333 26.1 18.4167 24.3333 18.65 22.4C18.8833 20.4667 19.2833 18.7167 19.85 17.15L15 19.95V23.9786C15 24.4262 14.8554 24.7917 14.5663 25.075C14.2771 25.3583 13.9187 25.5 13.4913 25.5C13.0638 25.5 12.7083 25.3563 12.425 25.0688C12.1417 24.7813 12 24.425 12 24V19.95C12 19.4052 12.1313 18.9038 12.3938 18.4457C12.6563 17.9876 13.025 17.6224 13.5 17.35L20.35 13.4C20.9167 13.0667 21.4583 12.8167 21.975 12.65C22.4917 12.4833 23.0167 12.4 23.55 12.4C24.3167 12.4 25.0083 12.5833 25.625 12.95C26.2417 13.3167 26.7167 13.8833 27.05 14.65L28.35 17.6C29.0167 19.0333 30.2 20.2083 31.9 21.125C33.6 22.0417 35.3 22.5 37 22.5C37.8333 22.5 38.5417 22.7917 39.125 23.375C39.7083 23.9583 40 24.6667 40 25.5V45.25C40 45.45 39.925 45.625 39.775 45.775C39.625 45.925 39.45 46 39.25 46C39.05 46 38.875 45.925 38.725 45.775C38.575 45.625 38.5 45.45 38.5 45.25V25.5C38.5 25.1 38.35 24.75 38.05 24.45C37.75 24.15 37.4 24 37 24C36.6 24 36.25 24.15 35.95 24.45C35.65 24.75 35.5 25.1 35.5 25.5V26.25C35.5 26.45 35.425 26.625 35.275 26.775C35.125 26.925 34.95 27 34.75 27C34.55 27 34.375 26.925 34.225 26.775C34.075 26.625 34 26.45 34 26.25V25.15C32.5333 24.8833 31.0417 24.225 29.525 23.175C28.0083 22.125 26.85 20.9833 26.05 19.75C25.65 20.9167 25.3417 22.1167 25.125 23.35C24.9083 24.5833 24.8333 25.8 24.9 27L29.2 33.1C29.3667 33.3667 29.5 33.6445 29.6 33.9334C29.7 34.2222 29.75 34.5111 29.75 34.8V44.5C29.75 44.925 29.6054 45.2813 29.3163 45.5688C29.0271 45.8563 28.6687 46 28.2413 46Z" fill="#3E2D3D"/>
</svg>
