<svg width="58" height="100" viewBox="0 0 58 100" fill="none" xmlns="http://www.w3.org/2000/svg">
<g clip-path="url(#clip0_486_289)">
<path d="M5.96571 100C4.38351 100 2.86611 99.3679 1.74732 98.2426C0.628529 97.1174 0 95.5913 0 94L0 23.5667C0 20.2542 2.67214 17.5667 5.96571 17.5667H13.0334C13.2571 17.5667 13.4726 17.6208 13.659 17.7167L13.6507 17.7125V0.7C13.6507 0.3125 13.9614 0 14.3467 0H39.2867C39.672 0 39.9827 0.3125 39.9827 0.7V17.6125C40.0911 17.5853 40.2024 17.5713 40.3141 17.5708H46.5906C49.8841 17.5708 52.5563 20.2583 52.5563 23.5708V40.3667C52.7433 40.2749 52.9489 40.2278 53.157 40.2292H56.2931C57.0637 40.2292 57.6893 40.8583 57.6893 41.6333V78.1833C57.6893 78.5557 57.5422 78.9129 57.2804 79.1762C57.0185 79.4396 56.6634 79.5875 56.2931 79.5875H53.157C52.9458 79.5882 52.7374 79.5397 52.548 79.4458L52.5563 79.45V94C52.5563 95.5913 51.9278 97.1174 50.809 98.2426C49.6902 99.3679 48.1728 100 46.5906 100H5.96571ZM36.308 86.5375V91.2625C36.3091 91.4489 36.3832 91.6274 36.5143 91.7592C36.6453 91.891 36.8228 91.9656 37.0081 91.9667H42.5347C42.7201 91.9656 42.8975 91.891 43.0286 91.7592C43.1597 91.6274 43.2338 91.4489 43.2349 91.2625V86.5375C43.2338 86.3515 43.1595 86.1734 43.0283 86.0423C42.8971 85.9111 42.7197 85.8375 42.5347 85.8375H36.9999C36.8152 85.8386 36.6384 85.9125 36.5074 86.0435C36.3765 86.1744 36.3019 86.3518 36.2997 86.5375H36.308ZM23.2331 86.5375V91.2625C23.2342 91.4489 23.3083 91.6274 23.4394 91.7592C23.5705 91.891 23.7479 91.9656 23.9333 91.9667H29.4557C29.6411 91.9656 29.8185 91.891 29.9496 91.7592C30.0807 91.6274 30.1548 91.4489 30.1559 91.2625V86.5375C30.1548 86.3515 30.0805 86.1734 29.9493 86.0423C29.8181 85.9111 29.6407 85.8375 29.4557 85.8375H23.9291C23.7445 85.8386 23.5677 85.9125 23.4367 86.0435C23.3058 86.1744 23.2353 86.3518 23.2331 86.5375ZM10.1583 86.5375V91.2667C10.1583 91.6542 10.469 91.9667 10.8543 91.9667H16.3809C16.5662 91.9656 16.7437 91.891 16.8747 91.7592C17.0058 91.6274 17.0799 91.4489 17.081 91.2625V86.5375C17.0799 86.3515 17.0057 86.1734 16.8745 86.0423C16.7433 85.9111 16.5658 85.8375 16.3809 85.8375H10.8543C10.6697 85.8375 10.4927 85.9112 10.3621 86.0425C10.2316 86.1738 10.1583 86.3518 10.1583 86.5375ZM36.3039 75.825V80.55C36.3049 80.7364 36.3791 80.9149 36.5101 81.0467C36.6412 81.1785 36.8186 81.2531 37.004 81.2542H42.5306C42.7159 81.2531 42.8934 81.1785 43.0244 81.0467C43.1555 80.9149 43.2296 80.7364 43.2307 80.55V75.8208C43.2307 75.6352 43.1574 75.4571 43.0269 75.3259C42.8963 75.1946 42.7193 75.1208 42.5347 75.1208H36.9957C36.8111 75.1208 36.6341 75.1946 36.5036 75.3259C36.373 75.4571 36.2997 75.6352 36.2997 75.8208L36.3039 75.825ZM23.229 75.825V80.55C23.2301 80.7364 23.3042 80.9149 23.4353 81.0467C23.5663 81.1785 23.7438 81.2531 23.9291 81.2542H29.4557C29.6411 81.2531 29.8185 81.1785 29.9496 81.0467C30.0807 80.9149 30.1548 80.7364 30.1559 80.55V75.8208C30.1559 75.6352 30.0825 75.4571 29.952 75.3259C29.8215 75.1946 29.6444 75.1208 29.4599 75.1208H23.925C23.7404 75.1208 23.5634 75.1946 23.4329 75.3259C23.3023 75.4571 23.229 75.6393 23.229 75.825ZM10.1541 75.825V80.5542C10.1541 80.9417 10.4649 81.2542 10.8501 81.2542H16.3767C16.5621 81.2531 16.7395 81.1785 16.8706 81.0467C17.0017 80.9149 17.0758 80.7364 17.0769 80.55V75.8208C17.0769 75.6352 17.0035 75.4571 16.873 75.3259C16.7425 75.1946 16.5654 75.1208 16.3809 75.1208H10.8501C10.6656 75.1208 10.4885 75.1946 10.358 75.3259C10.2275 75.4571 10.1541 75.6393 10.1541 75.825ZM36.2997 65.1083V69.8375C36.2997 70.225 36.6104 70.5375 36.9957 70.5375H42.5306C42.7152 70.5375 42.8922 70.4637 43.0227 70.3325C43.1532 70.2012 43.2266 70.0231 43.2266 69.8375V65.1083C43.2255 64.9223 43.1512 64.7443 43.02 64.6131C42.8889 64.4819 42.7114 64.4083 42.5264 64.4083H36.9999C36.8152 64.4094 36.6384 64.4834 36.5074 64.6143C36.3765 64.7452 36.3019 64.9226 36.2997 65.1083ZM23.2249 65.1083V69.8375C23.2249 70.225 23.5356 70.5375 23.9209 70.5375H29.4557C29.6403 70.5375 29.8173 70.4637 29.9479 70.3325C30.0784 70.2012 30.1517 70.0231 30.1517 69.8375V65.1083C30.1506 64.9223 30.0764 64.7443 29.9452 64.6131C29.814 64.4819 29.6365 64.4083 29.4516 64.4083H23.925C23.7404 64.4094 23.5635 64.4834 23.4326 64.6143C23.3016 64.7452 23.227 64.9226 23.2249 65.1083ZM10.15 65.1083V69.8375C10.15 70.225 10.4607 70.5375 10.846 70.5375H16.3809C16.5654 70.5375 16.7425 70.4637 16.873 70.3325C17.0035 70.2012 17.0769 70.0231 17.0769 69.8375V65.1083C17.0758 64.9223 17.0015 64.7443 16.8703 64.6131C16.7391 64.4819 16.5617 64.4083 16.3767 64.4083H10.8501C10.6656 64.4083 10.4885 64.4821 10.358 64.6134C10.2275 64.7446 10.15 64.9227 10.15 65.1083ZM9.28 37.1375V57.6042C9.28 57.9917 9.59071 58.3042 9.976 58.3042H42.1329C42.3174 58.3042 42.4945 58.2304 42.625 58.0991C42.7555 57.9679 42.8289 57.7898 42.8289 57.6042V37.1375C42.8278 36.9511 42.7537 36.7726 42.6226 36.6408C42.4915 36.509 42.3141 36.4344 42.1287 36.4333H9.98014C9.79479 36.4344 9.61734 36.509 9.48627 36.6408C9.3552 36.7726 9.28109 36.9511 9.28 37.1375ZM7.192 25.9625V30.9208C7.192 32.0833 8.12829 33.025 9.28414 33.025H44.08C44.6349 33.025 45.167 32.8033 45.5594 32.4087C45.9517 32.0141 46.1721 31.4789 46.1721 30.9208V25.9625C46.1721 25.4044 45.9517 24.8692 45.5594 24.4746C45.167 24.08 44.6349 23.8583 44.08 23.8583H39.9786V28.0667H42.0003V28.8083H11.3763V28.0667H12.7061C13.0422 28.0666 13.3733 27.9852 13.6714 27.8292L13.659 27.8333V24.0917C13.3633 23.9375 13.035 23.8574 12.702 23.8583H9.27586C8.7217 23.8594 8.19062 24.0816 7.79917 24.4761C7.40771 24.8706 7.192 25.4052 7.192 25.9625Z" fill="#3F2E3E"/>
</g>
<defs>
<clipPath id="clip0_486_289">
<rect width="58" height="100" fill="white"/>
</clipPath>
</defs>
</svg>
