<svg width="48" height="48" viewBox="0 0 48 48" fill="none" xmlns="http://www.w3.org/2000/svg">
<path d="M44 16.324V16.47C44 18.19 44 19.052 43.586 19.756C43.172 20.46 42.418 20.878 40.914 21.716L39.328 22.596C40.42 18.9 40.786 14.928 40.92 11.532L40.94 11.09L40.944 10.986C42.246 11.438 42.978 11.776 43.434 12.408C44 13.194 44 14.238 44 16.324ZM4 16.324V16.47C4 18.19 4 19.052 4.414 19.756C4.828 20.46 5.582 20.878 7.086 21.716L8.674 22.596C7.58 18.9 7.214 14.928 7.08 11.532L7.06 11.09L7.058 10.986C5.754 11.438 5.022 11.776 4.566 12.408C4 13.194 4 14.24 4 16.324Z" fill="#F7F0E8"/>
<path fill-rule="evenodd" clip-rule="evenodd" d="M32.7538 4.69398C29.8601 4.21973 26.932 3.98759 23.9998 3.99998C20.4338 3.99998 17.4938 4.31398 15.2458 4.69398C12.9678 5.07798 11.8298 5.26998 10.8778 6.44198C9.92777 7.61398 9.97777 8.87998 10.0778 11.412C10.4238 20.108 12.2998 30.972 22.4998 31.932V39H19.6398C19.1776 39.0003 18.7298 39.1606 18.3724 39.4538C18.0151 39.7469 17.7704 40.1548 17.6798 40.608L17.2998 42.5H11.9998C11.6019 42.5 11.2204 42.658 10.9391 42.9393C10.6578 43.2206 10.4998 43.6022 10.4998 44C10.4998 44.3978 10.6578 44.7793 10.9391 45.0606C11.2204 45.342 11.6019 45.5 11.9998 45.5H35.9998C36.3976 45.5 36.7791 45.342 37.0604 45.0606C37.3417 44.7793 37.4998 44.3978 37.4998 44C37.4998 43.6022 37.3417 43.2206 37.0604 42.9393C36.7791 42.658 36.3976 42.5 35.9998 42.5H30.6998L30.3198 40.608C30.2292 40.1548 29.9844 39.7469 29.6271 39.4538C29.2698 39.1606 28.822 39.0003 28.3598 39H25.4998V31.932C35.6998 30.972 37.5778 20.11 37.9218 11.412C38.0218 8.87998 38.0738 7.61198 37.1218 6.44198C36.1698 5.26998 35.0318 5.07798 32.7538 4.69398ZM25.5738 11.614C25.8479 11.7275 26.0822 11.9198 26.247 12.1665C26.4118 12.4132 26.4998 12.7033 26.4998 13V21C26.4998 21.3978 26.3417 21.7793 26.0604 22.0606C25.7791 22.3419 25.3976 22.5 24.9998 22.5C24.6019 22.5 24.2204 22.3419 23.9391 22.0606C23.6578 21.7793 23.4998 21.3978 23.4998 21V16.62L23.0598 17.06C22.9224 17.2074 22.7568 17.3256 22.5728 17.4075C22.3888 17.4895 22.1902 17.5336 21.9888 17.5372C21.7874 17.5407 21.5873 17.5037 21.4006 17.4282C21.2138 17.3528 21.0441 17.2405 20.9017 17.0981C20.7593 16.9556 20.647 16.786 20.5715 16.5992C20.4961 16.4124 20.459 16.2123 20.4626 16.0109C20.4661 15.8095 20.5102 15.6109 20.5922 15.4269C20.6742 15.2429 20.7924 15.0773 20.9398 14.94L23.9398 11.94C24.1494 11.7302 24.4165 11.5873 24.7073 11.5292C24.9982 11.4712 25.2997 11.5007 25.5738 11.614Z" fill="#F7F0E8"/>
</svg>
