<svg width="64" height="64" viewBox="0 0 64 64" fill="none" xmlns="http://www.w3.org/2000/svg">
<path d="M32.0002 30.6666C30.2321 30.6666 28.5364 29.9642 27.2861 28.714C26.0359 27.4637 25.3335 25.768 25.3335 23.9999C25.3335 22.2318 26.0359 20.5361 27.2861 19.2859C28.5364 18.0356 30.2321 17.3333 32.0002 17.3333C33.7683 17.3333 35.464 18.0356 36.7142 19.2859C37.9645 20.5361 38.6668 22.2318 38.6668 23.9999C38.6668 24.8754 38.4944 25.7423 38.1594 26.5511C37.8243 27.36 37.3333 28.0949 36.7142 28.714C36.0952 29.333 35.3602 29.8241 34.5514 30.1591C33.7425 30.4941 32.8756 30.6666 32.0002 30.6666ZM32.0002 5.33325C27.0495 5.33325 22.3015 7.29991 18.8008 10.8006C15.3002 14.3013 13.3335 19.0492 13.3335 23.9999C13.3335 37.9999 32.0002 58.6666 32.0002 58.6666C32.0002 58.6666 50.6668 37.9999 50.6668 23.9999C50.6668 19.0492 48.7002 14.3013 45.1995 10.8006C41.6988 7.29991 36.9509 5.33325 32.0002 5.33325Z" fill="#0D090C"/>
</svg>
