<svg width="48" height="48" viewBox="0 0 48 48" fill="none" xmlns="http://www.w3.org/2000/svg">
<g clip-path="url(#clip0_675_334)">
<path d="M15 48V32.1C13.2 31.2 12 29.1 12 27V15C12 12.9 13.2 11.1 15 9.89997V8.99997C15 5.69997 12.3 2.99997 9 2.99997C5.7 2.99997 3 5.69997 3 8.99997C3 12.3 5.7 15 9 15H3C1.5 15 0 16.5 0 18V30C0 31.5 1.5 33 3 33V48H15ZM45 15H39C42.3 15 45 12.3 45 8.99997C45 5.69997 42.3 2.99997 39 2.99997C35.7 2.99997 33 5.69997 33 8.99997V9.89997C34.8 11.1 36 12.9 36 15V27C36 29.1 34.8 31.2 33 32.1V48H45V33C46.5 33 48 31.5 48 30V18C48 16.5 46.5 15 45 15ZM30 5.99997C30.0181 6.79899 29.8763 7.59356 29.5831 8.33705C29.2898 9.08053 28.851 9.75793 28.2924 10.3295C27.7338 10.901 27.0666 11.3552 26.33 11.6654C25.5934 11.9755 24.8023 12.1354 24.003 12.1356C23.2038 12.1358 22.4126 11.9763 21.6759 11.6666C20.9391 11.3568 20.2717 10.9029 19.7128 10.3316C19.1539 9.76036 18.7147 9.08317 18.4211 8.33984C18.1275 7.5965 17.9853 6.802 18.003 6.00297C18.0377 4.43529 18.6847 2.94347 19.8055 1.84686C20.9264 0.750256 22.432 0.136012 24 0.13562C25.5681 0.135228 27.074 0.748719 28.1954 1.84476C29.3168 2.94081 29.9645 4.43231 30 5.99997Z" fill="#F7F0E8"/>
<path d="M30 12H18C16.5 12 15 13.5 15 15V27C15 28.5 16.5 30 18 30V48H30V30C31.5 30 33 28.5 33 27V15C33 13.5 31.5 12 30 12Z" fill="#F7F0E8"/>
</g>
<defs>
<clipPath id="clip0_675_334">
<rect width="48" height="48" fill="white"/>
</clipPath>
</defs>
</svg>
