<svg width="48" height="48" viewBox="0 0 48 48" fill="none" xmlns="http://www.w3.org/2000/svg">
<g clip-path="url(#clip0_675_332)">
<path d="M6.17463 20.688C5.84627 21.3644 5.67591 22.1066 5.67639 22.8585L5.86167 34.4985L1.82487 43.1616C1.67873 43.4311 1.58093 43.7242 1.53591 44.0275C1.48391 44.368 1.49972 44.7154 1.58243 45.0498C1.66514 45.3842 1.81311 45.6989 2.01785 45.9759C2.22259 46.2529 2.48005 46.4867 2.77545 46.6639C3.07084 46.841 3.39833 46.9581 3.73911 47.0083C4.26999 47.0897 4.81305 47.0056 5.29448 46.7676C5.77592 46.5295 6.17238 46.149 6.42999 45.6777L10.871 36.2083C10.9631 35.9884 11.0457 35.7571 11.0793 35.5036L11.1033 35.1465L11.0687 27.9504L17.8934 30.9187L18.9954 37.9516C19.1099 38.4685 19.3785 38.9384 19.7657 39.2994C20.1529 39.6604 20.6405 39.8954 21.1641 39.9734C21.8512 40.0749 22.5507 39.9015 23.1109 39.491C23.6712 39.0804 24.0471 38.4656 24.1574 37.7798C24.191 37.5369 24.191 37.294 24.1679 37.0636L22.823 28.5734C22.7421 28.1661 22.5668 27.7834 22.311 27.4562C22.0552 27.1291 21.7261 26.8666 21.3503 26.6899L15.2505 23.9904L19.1346 17.2569L21.0614 19.6944C21.2582 19.9132 21.5135 20.0985 21.8025 20.2137L29.1446 22.3497C29.6194 22.4534 30.1157 22.3865 30.5461 22.1607C30.9766 21.935 31.3138 21.5648 31.4985 21.1152C31.6008 20.8639 31.6525 20.595 31.6508 20.3237C31.6491 20.0525 31.5939 19.7842 31.4884 19.5343C31.3829 19.2844 31.2292 19.0577 31.0361 18.8673C30.8429 18.6768 30.6142 18.5263 30.3628 18.4243L30.2582 18.3897L23.879 16.5187L19.077 10.7788C18.3361 9.98851 17.3526 9.46792 16.2825 9.29948C15.3584 9.16169 14.4142 9.29711 13.5662 9.68908C12.7181 10.081 12.0032 10.7125 11.5094 11.5056L6.17463 20.688ZM27.2361 37.3766L26.7724 40.8643L14.1426 43.9238L14.2646 46.08H45.0671C45.3255 46.0811 45.5816 46.0312 45.8208 45.9332C46.0599 45.8352 46.2773 45.691 46.4605 45.5088C46.6438 45.3266 46.7893 45.11 46.8887 44.8714C46.9882 44.6329 47.0395 44.3771 47.0399 44.1187L47.0054 2.77244L42.7852 1.79132L40.3602 12.6614L36.3062 14.3587L32.711 24.382L36.1266 32.0515L35.1647 34.9958L27.2361 37.3766ZM18.6604 8.79068C20.829 8.79068 22.5916 7.0358 22.5916 4.8758C22.5906 2.71676 20.829 0.959961 18.6604 0.959961C16.4918 0.959961 14.7282 2.71676 14.7282 4.8758C14.7273 7.0358 16.4908 8.79068 18.6604 8.79068ZM10.8373 9.40316C10.9106 9.27578 10.9579 9.13516 10.9765 8.98942C10.9951 8.84368 10.9847 8.69569 10.9459 8.55398C10.9071 8.41228 10.8406 8.27965 10.7503 8.16375C10.66 8.04785 10.5477 7.95097 10.4197 7.87868L8.51703 6.76988C8.25686 6.62252 7.94912 6.58351 7.66041 6.66131C7.3717 6.7391 7.12523 6.92743 6.97431 7.18556L1.10679 17.2694C1.03391 17.3968 0.986877 17.5374 0.968376 17.683C0.949875 17.8286 0.960271 17.9764 0.99897 18.118C1.03767 18.2596 1.10391 18.3922 1.1939 18.5082C1.2839 18.6242 1.39587 18.7212 1.52343 18.7939L3.43767 19.8921C3.6945 20.0405 3.99964 20.0812 4.28638 20.0053C4.57313 19.9294 4.81816 19.7431 4.96791 19.487L10.8373 9.40316Z" fill="#F7F0E8"/>
</g>
<defs>
<clipPath id="clip0_675_332">
<rect width="48" height="48" fill="white"/>
</clipPath>
</defs>
</svg>
