<svg width="48" height="48" viewBox="0 0 48 48" fill="none" xmlns="http://www.w3.org/2000/svg">
<path d="M22 11.9999H28L34.58 5.39995C34.7659 5.21249 34.9871 5.0637 35.2308 4.96216C35.4745 4.86063 35.7359 4.80835 36 4.80835C36.264 4.80835 36.5254 4.86063 36.7691 4.96216C37.0128 5.0637 37.234 5.21249 37.42 5.39995L42.58 10.5799C42.9525 10.9547 43.1616 11.4616 43.1616 11.9899C43.1616 12.5183 42.9525 13.0252 42.58 13.3999L38 17.9999H22V21.9999C22 22.5304 21.7892 23.0391 21.4142 23.4142C21.0391 23.7892 20.5304 23.9999 20 23.9999C19.4695 23.9999 18.9608 23.7892 18.5858 23.4142C18.2107 23.0391 18 22.5304 18 21.9999V15.9999C18 14.9391 18.4214 13.9217 19.1715 13.1715C19.9217 12.4214 20.9391 11.9999 22 11.9999ZM9.99996 21.9999V29.9999L5.41996 34.5799C5.04746 34.9547 4.83838 35.4616 4.83838 35.9899C4.83838 36.5183 5.04746 37.0252 5.41996 37.3999L10.58 42.5799C10.7659 42.7674 10.9871 42.9162 11.2308 43.0177C11.4745 43.1193 11.7359 43.1715 12 43.1715C12.264 43.1715 12.5254 43.1193 12.7691 43.0177C13.0128 42.9162 13.234 42.7674 13.42 42.5799L22 33.9999H30C30.5304 33.9999 31.0391 33.7892 31.4142 33.4142C31.7892 33.0391 32 32.5304 32 31.9999V29.9999H34C34.5304 29.9999 35.0391 29.7892 35.4142 29.4142C35.7893 29.0391 36 28.5304 36 27.9999V25.9999H38C38.5304 25.9999 39.0391 25.7892 39.4142 25.4142C39.7893 25.0391 40 24.5304 40 23.9999V21.9999H26V23.9999C26 25.0608 25.5785 26.0782 24.8284 26.8284C24.0782 27.5785 23.0608 27.9999 22 27.9999H18C16.9391 27.9999 15.9217 27.5785 15.1715 26.8284C14.4214 26.0782 14 25.0608 14 23.9999V17.9999L9.99996 21.9999Z" fill="#F7F0E8"/>
</svg>
