<svg width="100" height="100" viewBox="0 0 100 100" fill="none" xmlns="http://www.w3.org/2000/svg">
<path d="M63.8729 12.8547L44.8812 25.045L46.8063 26.0991L63.7027 15.2534L92.3619 31.487L75.9234 42.0383L76.7242 42.4766V43.8141L89.5998 35.5493L92.3021 37.0801L76.724 47.0792V49.3688L89.3477 41.2659L92.3021 42.9397L76.724 52.9387V55.2284L89.3477 47.1254L92.3021 48.7993L76.724 58.7983V61.0879L96.2617 48.5469L91.4125 45.8004L96.2615 42.6877L91.4123 39.9409L96.2613 36.8282L91.6643 34.2241L96.3209 31.2348L63.8727 12.8547H63.8729ZM69.9406 21.593C65.8316 23.6547 60.3586 24.0036 56.5051 22.4491L48.9719 27.2844L73.7576 40.8528L80.9025 36.2668C78.0881 34.045 78.3225 30.7297 81.4771 28.1282L69.9404 21.593H69.9406ZM44.4348 28.8086L30.6285 37.8114L57.1148 53.0586L57.3746 52.8926C57.8629 52.5782 58.5523 52.1329 59.375 51.601C61.0195 50.5379 63.1959 49.1284 65.366 47.7221C68.4914 45.6967 70.102 44.6518 71.5996 43.6803L44.4348 28.8086ZM66.9869 29.0372C66.9871 29.0372 66.9873 29.0372 66.9875 29.0372C67.6121 29.041 68.1848 29.1749 68.6125 29.417C68.8614 29.558 69.0545 29.7318 69.1806 29.9287C69.3068 30.1255 69.3636 30.3415 69.3478 30.5642C69.3321 30.787 69.244 31.0122 69.0887 31.227C68.9333 31.4417 68.7138 31.6418 68.4426 31.8159C68.1714 31.9899 67.8539 32.1345 67.5082 32.2413C67.1625 32.3482 66.7953 32.4152 66.4276 32.4386C66.0599 32.462 65.6989 32.4413 65.3653 32.3777C65.0316 32.3141 64.7318 32.2088 64.483 32.0678C63.9805 31.7832 63.7161 31.3706 63.748 30.9208C63.7798 30.471 64.1054 30.0209 64.6529 29.6694C64.9639 29.4697 65.3353 29.3092 65.7394 29.1997C66.1436 29.0902 66.57 29.0347 66.9869 29.0372ZM24.3262 38.2393L3.73926 51.4532L8.33633 54.0573L3.67969 57.0465L8.52891 59.7932L3.67969 62.9061L8.52891 65.6528L3.67969 68.7657L36.1279 87.1458L55.7186 74.5704V72.2813L36.298 84.7469L7.63906 68.5131L10.4232 66.726L36.1279 81.286L55.7186 68.711V66.4219L36.298 78.8875L7.63906 62.6538L10.4232 60.8666L36.1279 75.4266L55.7186 62.8516V60.5625L36.298 73.0282L7.63906 56.7944L10.2309 55.1303L36.1879 69.8334L55.7186 57.2967V56.3104L54.6482 55.6944L36.3572 67.4346L7.69902 51.201L26.2068 39.3213L24.326 38.2387L24.3262 38.2393ZM28.3223 40.5401L19.1582 46.4219C21.9727 48.6434 21.7383 51.9586 18.5836 54.5606L30.1203 61.0957C34.2291 59.0338 39.7018 58.6852 43.5553 60.2395L52.5328 54.477L28.3219 40.5399L28.3223 40.5401ZM73.2084 46.8272C71.6373 47.8461 70.2518 48.7456 67.2781 50.6725C65.2807 51.9673 63.2827 53.2612 61.284 54.554C60.4604 55.0862 59.7693 55.5325 59.2766 55.8493C59.259 55.861 59.2518 55.8649 59.2346 55.876V72.6581L73.2086 63.2659L73.2084 46.8272ZM33.9525 50.2413C34.5772 50.2452 35.15 50.3792 35.5775 50.6215C36.08 50.9062 36.3444 51.3188 36.3126 51.7686C36.2807 52.2184 35.9552 52.6685 35.4076 53.02C34.8601 53.3714 34.1354 53.5953 33.3929 53.6426C32.6505 53.6898 31.9511 53.5565 31.4486 53.2719C30.9461 52.9873 30.6817 52.5747 30.7136 52.1249C30.7455 51.6751 31.071 51.2249 31.6186 50.8735C31.9295 50.6739 32.3009 50.5134 32.7051 50.4039C33.1092 50.2945 33.5357 50.2389 33.9525 50.2415V50.2413Z" fill="#3F2E3E"/>
</svg>
