<svg width="48" height="48" viewBox="0 0 48 48" fill="none" xmlns="http://www.w3.org/2000/svg">
<path d="M6.84387 2.34375V24.6562H41.1564V2.34375H26.5314V3.84375H39.6564V21.8438H8.34387V3.84375H21.4689V2.34375H6.84387ZM23.1564 2.34375V3.84375H24.8439V2.34375H23.1564ZM10.0314 5.53125V20.1562H37.9689V5.53125H10.0314ZM6.65918 26.3438L2.58105 42.6562H45.422L41.3439 26.3438H38.5407L40.4157 35.3438H31.0782L32.5782 41.3438H15.3564L17.2314 35.3438H7.5873L9.45949 26.3438H6.65918ZM11.1845 26.3438L10.9126 27.6562H13.7814L13.997 26.3438H11.1845ZM15.722 26.3438L15.5064 27.6562H18.3845L18.5439 26.3438H15.722ZM20.2407 26.3438L20.0814 27.6562H23.1564V26.3438H20.2407ZM24.8439 26.3438V27.6562H27.9189L27.7595 26.3438H24.8439ZM29.4564 26.3438L29.6157 27.6562H32.4939L32.2782 26.3438H29.4564ZM34.0032 26.3438L34.2189 27.6562H37.0876L36.8157 26.3438H34.0032ZM10.5657 29.3438L10.2845 30.6562H13.2751L13.5001 29.3438H10.5657ZM15.2251 29.3438L15.0001 30.6562H18.0095L18.1689 29.3438H15.2251ZM19.8657 29.3438L19.7064 30.6562H23.1564V29.3438H19.8657ZM24.8439 29.3438V30.6562H28.2939L28.1345 29.3438H24.8439ZM29.8314 29.3438L29.9907 30.6562H33.0001L32.7751 29.3438H29.8314ZM34.5001 29.3438L34.7251 30.6562H37.7157L37.4345 29.3438H34.5001ZM9.93762 32.3438L9.66574 33.6562H12.7782L12.9939 32.3438H9.93762ZM14.7189 32.3438L14.5032 33.6562H17.6345L17.7939 32.3438H14.7189ZM19.4907 32.3438L19.3314 33.6562H23.1564V32.3438H19.4907ZM24.8439 32.3438V33.6562H28.6689L28.5095 32.3438H24.8439ZM30.2064 32.3438L30.3657 33.6562H33.497L33.2814 32.3438H30.2064ZM35.0064 32.3438L35.222 33.6562H38.3345L38.0626 32.3438H35.0064ZM18.9939 35.3438L17.6439 39.6562H30.422L29.3439 35.3438H18.9939ZM2.62512 44.3438V46.0312H45.3751V44.3438H2.62512Z" fill="#F7F0E8"/>
</svg>
