<svg width="48" height="48" viewBox="0 0 48 48" fill="none" xmlns="http://www.w3.org/2000/svg">
<path d="M22.0005 12H28.0005L34.5805 5.40001C34.7664 5.21255 34.9876 5.06376 35.2313 4.96222C35.475 4.86069 35.7364 4.80841 36.0005 4.80841C36.2645 4.80841 36.5259 4.86069 36.7696 4.96222C37.0133 5.06376 37.2345 5.21255 37.4205 5.40001L42.5805 10.58C42.953 10.9547 43.162 11.4616 43.162 11.99C43.162 12.5184 42.953 13.0253 42.5805 13.4L38.0005 18H22.0005V22C22.0005 22.5304 21.7897 23.0391 21.4147 23.4142C21.0396 23.7893 20.5309 24 20.0005 24C19.47 24 18.9613 23.7893 18.5862 23.4142C18.2112 23.0391 18.0005 22.5304 18.0005 22V16C18.0005 14.9391 18.4219 13.9217 19.172 13.1716C19.9222 12.4214 20.9396 12 22.0005 12ZM10.0005 22V30L5.42045 34.58C5.04795 34.9547 4.83887 35.4616 4.83887 35.99C4.83887 36.5184 5.04795 37.0253 5.42045 37.4L10.5805 42.58C10.7664 42.7675 10.9876 42.9163 11.2313 43.0178C11.475 43.1193 11.7364 43.1716 12.0005 43.1716C12.2645 43.1716 12.5259 43.1193 12.7696 43.0178C13.0133 42.9163 13.2345 42.7675 13.4205 42.58L22.0005 34H30.0005C30.5309 34 31.0396 33.7893 31.4147 33.4142C31.7897 33.0391 32.0005 32.5304 32.0005 32V30H34.0005C34.5309 30 35.0396 29.7893 35.4147 29.4142C35.7897 29.0391 36.0005 28.5304 36.0005 28V26H38.0005C38.5309 26 39.0396 25.7893 39.4147 25.4142C39.7897 25.0391 40.0005 24.5304 40.0005 24V22H26.0005V24C26.0005 25.0609 25.579 26.0783 24.8289 26.8284C24.0787 27.5786 23.0613 28 22.0005 28H18.0005C16.9396 28 15.9222 27.5786 15.172 26.8284C14.4219 26.0783 14.0005 25.0609 14.0005 24V18L10.0005 22Z" fill="#F7F0E8"/>
</svg>
