<svg width="48" height="48" viewBox="0 0 48 48" fill="none" xmlns="http://www.w3.org/2000/svg">
<g clip-path="url(#clip0_0_8)">
<path d="M7.85 38C5.68333 38 3.83333 37.2417 2.3 35.725C0.766667 34.2083 0 32.35 0 30.15C0 27.95 0.758333 26.0917 2.275 24.575C3.79167 23.0583 5.63333 22.3 7.8 22.3L5.45 20.5H0V18H9.05L14 21L21.95 18H28.95L25.05 13H20.6V10H26.55L30.85 15.55L37.3 12.35V17.55H32.4L36.65 23.05C37.2167 22.8167 37.7833 22.6417 38.35 22.525C38.9167 22.4083 39.5 22.35 40.1 22.35C42.3 22.35 44.1667 23.1083 45.7 24.625C47.2333 26.1417 48 28 48 30.2C48 32.4 47.2333 34.25 45.7 35.75C44.1667 37.25 42.3 38 40.1 38C37.9333 38 36.0917 37.2417 34.575 35.725C33.0583 34.2083 32.3 32.3667 32.3 30.2C32.3 29.2 32.4667 28.25 32.8 27.35C33.1333 26.45 33.6333 25.6333 34.3 24.9L32.55 22.65L25.25 33.8H19.75L15.7 30.15C15.7 32.35 14.9417 34.2083 13.425 35.725C11.9083 37.2417 10.05 38 7.85 38ZM7.85 35C9.21667 35 10.3667 34.525 11.3 33.575C12.2333 32.625 12.7 31.4833 12.7 30.15C12.7 28.8167 12.2333 27.675 11.3 26.725C10.3667 25.775 9.21667 25.3 7.85 25.3C6.51667 25.3 5.375 25.7667 4.425 26.7C3.475 27.6333 3 28.7833 3 30.15C3 31.5167 3.475 32.6667 4.425 33.6C5.375 34.5333 6.51667 35 7.85 35ZM40.1 35C41.4667 35 42.625 34.5333 43.575 33.6C44.525 32.6667 45 31.5333 45 30.2C45 28.8333 44.525 27.675 43.575 26.725C42.625 25.775 41.4667 25.3 40.1 25.3C38.7667 25.3 37.6333 25.775 36.7 26.725C35.7667 27.675 35.3 28.8333 35.3 30.2C35.3 31.5333 35.7667 32.6667 36.7 33.6C37.6333 34.5333 38.7667 35 40.1 35Z" fill="#EFE1D1"/>
</g>
<defs>
<clipPath id="clip0_0_8">
<rect width="48" height="48" fill="white"/>
</clipPath>
</defs>
</svg>
