<svg width="48" height="48" viewBox="0 0 48 48" fill="none" xmlns="http://www.w3.org/2000/svg">
<path d="M27 27C28.6667 27 30.0833 26.4167 31.25 25.25C32.4167 24.0833 33 22.6667 33 21C33 19.3333 32.4167 17.9167 31.25 16.75C30.0833 15.5833 28.6667 15 27 15C25.3333 15 23.9167 15.5833 22.75 16.75C21.5833 17.9167 21 19.3333 21 21C21 22.6667 21.5833 24.0833 22.75 25.25C23.9167 26.4167 25.3333 27 27 27ZM11 34C10.175 34 9.46875 33.7063 8.88125 33.1188C8.29375 32.5313 8 31.825 8 31V11C8 10.175 8.29375 9.46875 8.88125 8.88125C9.46875 8.29375 10.175 8 11 8H43C43.825 8 44.5313 8.29375 45.1188 8.88125C45.7063 9.46875 46 10.175 46 11V31C46 31.825 45.7063 32.5313 45.1188 33.1188C44.5313 33.7063 43.825 34 43 34H11ZM5 40C4.175 40 3.46875 39.7063 2.88125 39.1188C2.29375 38.5313 2 37.825 2 37V15.5C2 15.075 2.14458 14.7188 2.43375 14.4313C2.72295 14.1438 3.08128 14 3.50875 14C3.93625 14 4.29167 14.1438 4.575 14.4313C4.85833 14.7188 5 15.075 5 15.5V37H38.5C38.925 37 39.2813 37.1446 39.5688 37.4337C39.8563 37.7229 40 38.0813 40 38.5087C40 38.9362 39.8563 39.2917 39.5688 39.575C39.2813 39.8583 38.925 40 38.5 40H5ZM11 16C12.4 16 13.5833 15.5167 14.55 14.55C15.5167 13.5833 16 12.4 16 11H11V16ZM43 16V11H38C38 12.4 38.4833 13.5833 39.45 14.55C40.4167 15.5167 41.6 16 43 16ZM11 31H16C16 29.6 15.5167 28.4167 14.55 27.45C13.5833 26.4833 12.4 26 11 26V31ZM38 31H43V26C41.6 26 40.4167 26.4833 39.45 27.45C38.4833 28.4167 38 29.6 38 31Z" fill="#3F2E3E"/>
</svg>
