<svg width="48" height="48" viewBox="0 0 48 48" fill="none" xmlns="http://www.w3.org/2000/svg">
<path d="M13 16.5C12.175 16.5 11.4688 16.2063 10.8813 15.6188C10.2938 15.0313 10 14.325 10 13.5V7C10 6.175 10.2938 5.46875 10.8813 4.88125C11.4688 4.29375 12.175 4 13 4H35C35.825 4 36.5313 4.29375 37.1188 4.88125C37.7063 5.46875 38 6.175 38 7V13.5C38 14.325 37.7063 15.0313 37.1188 15.6188C36.5313 16.2063 35.825 16.5 35 16.5H13ZM13.75 13.5H34.25C34.45 13.5 34.625 13.425 34.775 13.275C34.925 13.125 35 12.95 35 12.75V7.75C35 7.55 34.925 7.375 34.775 7.225C34.625 7.075 34.45 7 34.25 7H13.75C13.55 7 13.375 7.075 13.225 7.225C13.075 7.375 13 7.55 13 7.75V12.75C13 12.95 13.075 13.125 13.225 13.275C13.375 13.425 13.55 13.5 13.75 13.5ZM7 44C6.175 44 5.46875 43.7063 4.88125 43.1188C4.29375 42.5313 4 41.825 4 41V37.5H44V41C44 41.825 43.7063 42.5313 43.1188 43.1188C42.5313 43.7063 41.825 44 41 44H7ZM4 36L11.25 19.8C11.5167 19.2333 11.8873 18.7917 12.3619 18.475C12.8365 18.1583 13.3659 18 13.95 18H34.05C34.6341 18 35.1635 18.1583 35.6381 18.475C36.1127 18.7917 36.4833 19.2333 36.75 19.8L44 36H4ZM17 32H19C19.2667 32 19.5 31.9 19.7 31.7C19.9 31.5 20 31.2667 20 31C20 30.7333 19.9 30.5 19.7 30.3C19.5 30.1 19.2667 30 19 30H17C16.7333 30 16.5 30.1 16.3 30.3C16.1 30.5 16 30.7333 16 31C16 31.2667 16.1 31.5 16.3 31.7C16.5 31.9 16.7333 32 17 32ZM17 28H19C19.2667 28 19.5 27.9 19.7 27.7C19.9 27.5 20 27.2667 20 27C20 26.7333 19.9 26.5 19.7 26.3C19.5 26.1 19.2667 26 19 26H17C16.7333 26 16.5 26.1 16.3 26.3C16.1 26.5 16 26.7333 16 27C16 27.2667 16.1 27.5 16.3 27.7C16.5 27.9 16.7333 28 17 28ZM17 24H19C19.2667 24 19.5 23.9 19.7 23.7C19.9 23.5 20 23.2667 20 23C20 22.7333 19.9 22.5 19.7 22.3C19.5 22.1 19.2667 22 19 22H17C16.7333 22 16.5 22.1 16.3 22.3C16.1 22.5 16 22.7333 16 23C16 23.2667 16.1 23.5 16.3 23.7C16.5 23.9 16.7333 24 17 24ZM23 32H25C25.2667 32 25.5 31.9 25.7 31.7C25.9 31.5 26 31.2667 26 31C26 30.7333 25.9 30.5 25.7 30.3C25.5 30.1 25.2667 30 25 30H23C22.7333 30 22.5 30.1 22.3 30.3C22.1 30.5 22 30.7333 22 31C22 31.2667 22.1 31.5 22.3 31.7C22.5 31.9 22.7333 32 23 32ZM23 28H25C25.2667 28 25.5 27.9 25.7 27.7C25.9 27.5 26 27.2667 26 27C26 26.7333 25.9 26.5 25.7 26.3C25.5 26.1 25.2667 26 25 26H23C22.7333 26 22.5 26.1 22.3 26.3C22.1 26.5 22 26.7333 22 27C22 27.2667 22.1 27.5 22.3 27.7C22.5 27.9 22.7333 28 23 28ZM23 24H25C25.2667 24 25.5 23.9 25.7 23.7C25.9 23.5 26 23.2667 26 23C26 22.7333 25.9 22.5 25.7 22.3C25.5 22.1 25.2667 22 25 22H23C22.7333 22 22.5 22.1 22.3 22.3C22.1 22.5 22 22.7333 22 23C22 23.2667 22.1 23.5 22.3 23.7C22.5 23.9 22.7333 24 23 24ZM29 32H31C31.2667 32 31.5 31.9 31.7 31.7C31.9 31.5 32 31.2667 32 31C32 30.7333 31.9 30.5 31.7 30.3C31.5 30.1 31.2667 30 31 30H29C28.7333 30 28.5 30.1 28.3 30.3C28.1 30.5 28 30.7333 28 31C28 31.2667 28.1 31.5 28.3 31.7C28.5 31.9 28.7333 32 29 32ZM29 28H31C31.2667 28 31.5 27.9 31.7 27.7C31.9 27.5 32 27.2667 32 27C32 26.7333 31.9 26.5 31.7 26.3C31.5 26.1 31.2667 26 31 26H29C28.7333 26 28.5 26.1 28.3 26.3C28.1 26.5 28 26.7333 28 27C28 27.2667 28.1 27.5 28.3 27.7C28.5 27.9 28.7333 28 29 28ZM29 24H31C31.2667 24 31.5 23.9 31.7 23.7C31.9 23.5 32 23.2667 32 23C32 22.7333 31.9 22.5 31.7 22.3C31.5 22.1 31.2667 22 31 22H29C28.7333 22 28.5 22.1 28.3 22.3C28.1 22.5 28 22.7333 28 23C28 23.2667 28.1 23.5 28.3 23.7C28.5 23.9 28.7333 24 29 24Z" fill="#3F2E3E"/>
</svg>
