<svg width="48" height="48" viewBox="0 0 48 48" fill="none" xmlns="http://www.w3.org/2000/svg">
<path d="M6.00001 18C5.43334 18 4.95801 17.808 4.57401 17.424C4.19001 17.04 3.99867 16.5653 4.00001 16C4.00001 15.4333 4.19201 14.958 4.57601 14.574C4.96001 14.19 5.43467 13.9987 6.00001 14H12C12.5667 14 13.042 14.192 13.426 14.576C13.81 14.96 14.0013 15.4347 14 16C14 16.5667 13.808 17.042 13.424 17.426C13.04 17.81 12.5653 18.0013 12 18H6.00001ZM6.00001 28C5.43334 28 4.95801 27.808 4.57401 27.424C4.19001 27.04 3.99867 26.5653 4.00001 26C4.00001 25.4333 4.19201 24.958 4.57601 24.574C4.96001 24.19 5.43467 23.9987 6.00001 24H12C12.5667 24 13.042 24.192 13.426 24.576C13.81 24.96 14.0013 25.4347 14 26C14 26.5667 13.808 27.042 13.424 27.426C13.04 27.81 12.5653 28.0013 12 28H6.00001ZM39.8 36.6L33.5 30.3C32.7 30.8667 31.8247 31.292 30.874 31.576C29.9233 31.86 28.9653 32.0013 28 32C25.2333 32 22.8747 31.0247 20.924 29.074C18.9733 27.1233 17.9987 24.7653 18 22C18 19.2333 18.9753 16.8747 20.926 14.924C22.8767 12.9733 25.2347 11.9987 28 12C30.7667 12 33.1253 12.9753 35.076 14.926C37.0267 16.8767 38.0013 19.2347 38 22C38 22.9667 37.858 23.9253 37.574 24.876C37.29 25.8267 36.8653 26.7013 36.3 27.5L42.6 33.8C42.9667 34.1667 43.15 34.6333 43.15 35.2C43.15 35.7667 42.9667 36.2333 42.6 36.6C42.2333 36.9667 41.7667 37.15 41.2 37.15C40.6333 37.15 40.1667 36.9667 39.8 36.6ZM28 28C29.6667 28 31.0833 27.4167 32.25 26.25C33.4167 25.0833 34 23.6667 34 22C34 20.3333 33.4167 18.9167 32.25 17.75C31.0833 16.5833 29.6667 16 28 16C26.3333 16 24.9167 16.5833 23.75 17.75C22.5833 18.9167 22 20.3333 22 22C22 23.6667 22.5833 25.0833 23.75 26.25C24.9167 27.4167 26.3333 28 28 28ZM6.00001 38C5.43334 38 4.95801 37.808 4.57401 37.424C4.19001 37.04 3.99867 36.5653 4.00001 36C4.00001 35.4333 4.19201 34.958 4.57601 34.574C4.96001 34.19 5.43467 33.9987 6.00001 34H22C22.5667 34 23.042 34.192 23.426 34.576C23.81 34.96 24.0013 35.4347 24 36C24 36.5667 23.808 37.042 23.424 37.426C23.04 37.81 22.5653 38.0013 22 38H6.00001Z" fill="#0D090C"/>
</svg>
