<svg width="48" height="48" viewBox="0 0 48 48" fill="none" xmlns="http://www.w3.org/2000/svg">
<path d="M24.0281 1.87036C20.1844 1.87036 17.0812 4.93599 17.0812 8.73942C17.0812 10.8938 17.8312 11.9063 18.6562 13.2188C19.2094 14.0907 19.7812 15.1032 20.1094 16.5563H27.8906C28.2188 15.0657 28.7906 14.0438 29.3438 13.1625C30.1781 11.8407 30.9187 10.8469 30.9187 8.73942C30.9187 4.93599 27.8437 1.87036 24.0281 1.87036ZM10.7062 2.59224L7.59375 3.3188L15.2062 7.09224L10.7062 2.59224ZM37.2937 2.59224L32.7937 7.09224L40.4062 3.3188L37.2937 2.59224ZM19.7344 7.42505L24 9.55317L28.2656 7.42505L26.3156 15.2063L24.6844 14.7938L25.7344 10.575L24 11.4469L22.2656 10.575L23.3156 14.7938L21.6844 15.2063L19.7344 7.42505ZM6 9.00286V12.0094L15 10.5L6 9.00286ZM42 9.00286L33 10.5L42 12V9.00286ZM31.3313 13.5282L35.0719 19.4625L37.3313 18.0282L31.3313 13.5282ZM16.6688 13.5375L10.6688 18.0375L12.9281 19.4719L16.6688 13.5375ZM20.25 17.9063V19.4063H27.75V17.9063H20.25ZM23.475 20.5594C22.1906 20.5594 20.9531 20.6063 20.1281 20.6532C13.7344 21.6563 12.3562 30.5344 13.875 38.6157H16.0875L15.9938 28.7344L17.7375 28.7157C17.6062 34.6875 17.8875 40.5844 18.2531 46.5H23.0719V36.5907H24.825V46.5H29.55C29.9719 40.4063 30.1031 34.1719 30.1594 28.7157L31.9125 28.7344L31.8094 38.6157H34.1156C35.8312 30.3188 33.6656 21.8438 27.825 20.7469C26.9437 20.6157 25.4906 20.5594 24.0188 20.5594H23.475Z" fill="#F7F0E8"/>
</svg>
