<svg width="48" height="48" viewBox="0 0 48 48" fill="none" xmlns="http://www.w3.org/2000/svg">
<path d="M32 22C32.5667 22 33.0417 21.8083 33.425 21.425C33.8083 21.0417 34 20.5667 34 20C34 19.4333 33.8083 18.9583 33.425 18.575C33.0417 18.1917 32.5667 18 32 18C31.4333 18 30.9583 18.1917 30.575 18.575C30.1917 18.9583 30 19.4333 30 20C30 20.5667 30.1917 21.0417 30.575 21.425C30.9583 21.8083 31.4333 22 32 22ZM17.5 17H24.5C24.925 17 25.2813 16.8554 25.5688 16.5663C25.8563 16.2771 26 15.9187 26 15.4913C26 15.0638 25.8563 14.7083 25.5688 14.425C25.2813 14.1417 24.925 14 24.5 14H17.5C17.075 14 16.7188 14.1446 16.4313 14.4337C16.1438 14.7229 16 15.0813 16 15.5087C16 15.9362 16.1438 16.2917 16.4313 16.575C16.7188 16.8583 17.075 17 17.5 17ZM11.5 42C10.8 42 10.1418 41.7673 9.5255 41.3018C8.90917 40.8364 8.50067 40.2691 8.3 39.6C7.46667 36.7333 6.7743 34.259 6.2229 32.1771C5.67147 30.0952 5.23205 28.2671 4.90465 26.693C4.57725 25.1189 4.34463 23.7225 4.2068 22.5038C4.06893 21.2851 4 20.1171 4 19C4 15.9333 5.06667 13.3333 7.2 11.2C9.33333 9.06667 11.9333 8 15 8H25C25.9 6.8 27.0417 5.83333 28.425 5.1C29.8083 4.36667 31.3333 4 33 4C33.8333 4 34.5417 4.29167 35.125 4.875C35.7083 5.45833 36 6.16667 36 7C36 7.2 35.975 7.4 35.925 7.6C35.875 7.8 35.8167 7.98333 35.75 8.15C35.6167 8.51667 35.4917 8.88333 35.375 9.25C35.2583 9.61667 35.1667 10.0167 35.1 10.45L39.65 15H42.5C42.925 15 43.2813 15.1438 43.5688 15.4313C43.8563 15.7188 44 16.075 44 16.5V27.85C44 28.1914 43.9083 28.4934 43.725 28.7561C43.5417 29.0187 43.2833 29.2 42.95 29.3L38.3537 30.8149L35.65 39.85C35.4491 40.5038 35.0851 41.0256 34.5578 41.4154C34.0305 41.8051 33.4279 42 32.75 42H27C26.175 42 25.4688 41.7063 24.8813 41.1188C24.2938 40.5313 24 39.825 24 39V38H20V39C20 39.825 19.7063 40.5313 19.1188 41.1188C18.5313 41.7063 17.825 42 17 42H11.5Z" fill="#3E2D3D"/>
</svg>
