<svg width="300" height="300" viewBox="0 0 300 300" fill="none" xmlns="http://www.w3.org/2000/svg">
<g clip-path="url(#clip0_497_322)">
<path d="M193.2 21.228C193.2 21.228 111.474 17.274 44.9998 62.592C-21.4742 107.91 12.2578 266.556 34.9738 276.6C57.6898 286.644 145.044 303.984 212.472 274.5C279.9 245.016 302.022 138.234 292.314 107.574C282.606 76.914 263.754 29.94 193.2 21.228Z" fill="#F7F0E8"/>
<path opacity="0.7" d="M193.2 21.228C193.2 21.228 111.474 17.274 44.9998 62.592C-21.4742 107.91 12.2578 266.556 34.9738 276.6C57.6898 286.644 145.044 303.984 212.472 274.5C279.9 245.016 302.022 138.234 292.314 107.574C282.606 76.914 263.754 29.94 193.2 21.228Z" fill="white"/>
<path d="M203.388 166.26L153.972 141.312L204.234 41.142L253.65 66.09L203.388 166.26Z" fill="#F7F0E8" stroke="#263238" stroke-miterlimit="10"/>
<path d="M242.682 75.9C241.896 75.5042 241.196 74.9572 240.622 74.2902C240.048 73.6231 239.611 72.8493 239.337 72.0131C239.063 71.1769 238.956 70.2948 239.024 69.4173C239.091 68.5399 239.331 67.6844 239.73 66.9C239.857 66.6566 239.998 66.4202 240.15 66.192L211.8 51.888C211.712 52.149 211.606 52.4036 211.482 52.65C210.684 54.2308 209.291 55.4299 207.609 55.9835C205.926 56.5371 204.093 56.3999 202.512 55.602C202.388 55.5412 202.268 55.4731 202.152 55.398L164.196 131.148L164.574 131.316C166.155 132.114 167.354 133.508 167.908 135.19C168.461 136.872 168.324 138.705 167.526 140.286C167.401 140.533 167.258 140.772 167.1 141L195.474 155.322C195.565 155.062 195.671 154.807 195.792 154.56C196.189 153.775 196.736 153.075 197.403 152.501C198.07 151.928 198.844 151.491 199.68 151.217C200.516 150.943 201.398 150.836 202.275 150.903C203.152 150.97 204.008 151.21 204.792 151.608C205.038 151.734 205.274 151.876 205.5 152.034L243.444 76.2C243.184 76.1175 242.929 76.0172 242.682 75.9ZM198.408 113.508C196.477 112.532 194.878 111.005 193.814 109.12C192.75 107.235 192.269 105.077 192.431 102.919C192.594 100.761 193.392 98.6994 194.726 96.9951C196.06 95.2907 197.87 94.0202 199.926 93.3441C201.982 92.668 204.192 92.6167 206.277 93.1967C208.362 93.7766 210.229 94.9618 211.64 96.6024C213.052 98.243 213.945 100.265 214.208 102.414C214.47 104.562 214.09 106.74 213.114 108.672C211.805 111.263 209.52 113.228 206.762 114.134C204.005 115.041 201 114.816 198.408 113.508Z" fill="white" stroke="#263238" stroke-linecap="round" stroke-linejoin="round"/>
<path d="M202.698 166.476L156.276 136.326L217.086 42.18L263.508 72.33L202.698 166.476Z" fill="#F7F0E8" stroke="#263238" stroke-miterlimit="10"/>
<path d="M251.544 80.8979C250.059 79.9329 249.017 78.4177 248.648 76.6852C248.279 74.9527 248.613 73.1445 249.576 71.6579C249.73 71.4294 249.897 71.2091 250.074 70.9979L223.422 53.6819C223.302 53.9315 223.168 54.1739 223.02 54.4079C222.545 55.146 221.928 55.7832 221.207 56.2828C220.485 56.7825 219.671 57.1349 218.813 57.32C217.955 57.505 217.069 57.5189 216.205 57.3611C215.341 57.2032 214.517 56.8766 213.78 56.3999C213.666 56.3279 213.558 56.2379 213.444 56.1599L167.538 127.326C167.658 127.392 167.778 127.458 167.892 127.536C168.632 128.013 169.269 128.632 169.769 129.357C170.268 130.082 170.619 130.898 170.802 131.759C170.985 132.62 170.996 133.508 170.834 134.373C170.673 135.239 170.342 136.063 169.86 136.8C169.707 137.031 169.541 137.254 169.362 137.466L196.014 154.776C196.135 154.527 196.269 154.285 196.416 154.05C197.382 152.565 198.898 151.525 200.63 151.157C202.363 150.789 204.17 151.124 205.656 152.088C205.885 152.242 206.105 152.409 206.316 152.586L252.264 81.2999C252.016 81.18 251.776 81.0458 251.544 80.8979ZM203.46 113.496C201.643 112.317 200.217 110.626 199.361 108.636C198.506 106.646 198.259 104.448 198.653 102.318C199.047 100.188 200.064 98.2231 201.575 96.6714C203.086 95.1196 205.023 94.0508 207.142 93.6C209.26 93.1493 211.465 93.337 213.477 94.1393C215.488 94.9415 217.217 96.3224 218.444 98.1072C219.671 99.892 220.341 102.001 220.37 104.166C220.398 106.332 219.784 108.457 218.604 110.274C217.023 112.709 214.539 114.416 211.699 115.021C208.859 115.625 205.896 115.076 203.46 113.496Z" fill="white" stroke="#263238" stroke-linecap="round" stroke-linejoin="round"/>
<path d="M201.792 166.638L159.984 130.35L233.244 45.534L275.046 81.816L201.792 166.638Z" fill="#F7F0E8" stroke="#263238" stroke-miterlimit="10"/>
<path d="M262.008 88.644C261.29 88.0254 260.713 87.2607 260.315 86.4011C259.916 85.5414 259.706 84.6065 259.698 83.659C259.69 82.7115 259.885 81.7732 260.268 80.907C260.652 80.0407 261.217 79.2664 261.924 78.636L237.924 57.804C237.771 58.0335 237.605 58.2539 237.426 58.464C236.851 59.127 236.151 59.6703 235.366 60.0627C234.581 60.4551 233.727 60.6889 232.851 60.7507C231.976 60.8126 231.097 60.7013 230.264 60.4232C229.432 60.1451 228.663 59.7056 228 59.13C227.892 59.034 227.796 58.938 227.7 58.842L172.386 123C172.494 123.084 172.608 123.162 172.71 123.258C173.428 123.876 174.005 124.641 174.404 125.501C174.802 126.361 175.013 127.295 175.02 128.243C175.028 129.19 174.834 130.129 174.45 130.995C174.066 131.861 173.502 132.635 172.794 133.266L196.794 154.098C196.948 153.869 197.114 153.649 197.292 153.438C197.906 152.712 198.669 152.128 199.529 151.724C200.389 151.32 201.327 151.107 202.277 151.099C203.227 151.091 204.168 151.289 205.035 151.678C205.902 152.067 206.675 152.639 207.3 153.354L262.668 89.154C262.436 89.0001 262.216 88.8297 262.008 88.644ZM209.88 114.276C208.244 112.857 207.066 110.984 206.494 108.895C205.923 106.806 205.983 104.594 206.669 102.539C207.354 100.485 208.634 98.6798 210.345 97.3524C212.057 96.025 214.123 95.2349 216.284 95.0821C218.444 94.9294 220.601 95.4208 222.483 96.4942C224.364 97.5675 225.885 99.1747 226.852 101.112C227.82 103.05 228.191 105.231 227.919 107.38C227.647 109.529 226.744 111.549 225.324 113.184C224.382 114.27 223.235 115.16 221.949 115.803C220.663 116.446 219.263 116.829 217.828 116.93C216.394 117.032 214.954 116.849 213.59 116.394C212.226 115.938 210.966 115.219 209.88 114.276Z" fill="white" stroke="#263238" stroke-linecap="round" stroke-linejoin="round"/>
<path d="M201.666 169.362L165.09 127.818L249.03 53.55L285.606 95.1L201.666 169.362Z" fill="#F7F0E8" stroke="#263238" stroke-miterlimit="10"/>
<path d="M271.8 100.122C270.631 98.7918 270.038 97.0521 270.15 95.2848C270.262 93.5175 271.072 91.8671 272.4 90.696C272.609 90.5139 272.829 90.3455 273.06 90.192L252.06 66.336C251.437 67.0511 250.668 67.6244 249.805 68.0173C248.942 68.4102 248.004 68.6135 247.056 68.6135C246.108 68.6135 245.17 68.4102 244.307 68.0173C243.444 67.6244 242.675 67.0511 242.052 66.336C241.956 66.228 241.878 66.12 241.794 66.012L178.362 122.184C178.458 122.286 178.56 122.376 178.65 122.484C179.23 123.142 179.674 123.908 179.957 124.738C180.241 125.568 180.358 126.446 180.302 127.321C180.247 128.197 180.019 129.052 179.633 129.84C179.246 130.627 178.708 131.33 178.05 131.91C177.842 132.09 177.623 132.258 177.396 132.414L198.396 156.27C198.582 156.056 198.782 155.856 198.996 155.67C199.654 155.09 200.42 154.645 201.25 154.361C202.08 154.077 202.958 153.959 203.833 154.015C204.709 154.071 205.565 154.299 206.352 154.686C207.14 155.072 207.843 155.611 208.422 156.27C208.604 156.477 208.772 156.696 208.926 156.924L272.382 100.692C272.177 100.514 271.982 100.323 271.8 100.122ZM216.714 118.548C215.284 116.923 214.369 114.911 214.083 112.765C213.797 110.62 214.153 108.438 215.107 106.496C216.061 104.553 217.569 102.937 219.442 101.851C221.314 100.766 223.466 100.26 225.626 100.397C227.786 100.535 229.857 101.31 231.576 102.624C233.296 103.938 234.587 105.733 235.287 107.781C235.987 109.829 236.063 112.038 235.508 114.13C234.952 116.222 233.788 118.102 232.164 119.532C231.084 120.486 229.826 121.218 228.463 121.685C227.1 122.152 225.658 122.345 224.22 122.253C222.782 122.162 221.376 121.788 220.083 121.152C218.789 120.516 217.634 119.631 216.684 118.548H216.714Z" fill="white" stroke="#263238" stroke-linecap="round" stroke-linejoin="round"/>
<path d="M190.944 215.238L293.898 172.2C294.772 171.83 295.464 171.131 295.825 170.253C296.186 169.376 296.185 168.391 295.824 167.514L270.18 106.158C269.81 105.283 269.11 104.589 268.231 104.228C267.352 103.868 266.366 103.869 265.488 104.232L162.534 147.258C161.66 147.628 160.968 148.327 160.607 149.205C160.247 150.082 160.247 151.067 160.608 151.944L186.252 213.312C186.622 214.187 187.322 214.881 188.201 215.242C189.08 215.602 190.066 215.601 190.944 215.238Z" fill="#263238" stroke="#263238" stroke-linecap="round" stroke-linejoin="round"/>
<path d="M173.424 159.986L179.623 162.681C181.148 163.344 182.921 162.645 183.583 161.121L186.278 154.922C186.941 153.398 186.243 151.625 184.719 150.962L178.52 148.267C176.995 147.604 175.222 148.302 174.56 149.827L171.864 156.026C171.202 157.55 171.9 159.323 173.424 159.986Z" fill="white" stroke="#263238" stroke-width="1.00319" stroke-miterlimit="10"/>
<path d="M273.199 169.59L284.797 164.743L282.792 159.943L271.194 164.79L273.199 169.59Z" fill="white" stroke="#263238" stroke-miterlimit="10"/>
<path d="M257.805 176.031L269.403 171.184L267.397 166.384L255.799 171.231L257.805 176.031Z" fill="white" stroke="#263238" stroke-miterlimit="10"/>
<path d="M242.408 182.46L254.006 177.613L252 172.814L240.402 177.66L242.408 182.46Z" fill="white" stroke="#263238" stroke-miterlimit="10"/>
<path d="M227.013 188.895L238.611 184.048L236.606 179.248L225.008 184.095L227.013 188.895Z" fill="white" stroke="#263238" stroke-miterlimit="10"/>
<path d="M211.618 195.33L223.216 190.483L221.211 185.683L209.613 190.53L211.618 195.33Z" fill="white" stroke="#263238" stroke-miterlimit="10"/>
<path d="M196.218 201.765L207.816 196.918L205.81 192.118L194.212 196.965L196.218 201.765Z" fill="white" stroke="#263238" stroke-miterlimit="10"/>
<path d="M254.752 158.515L276.282 149.518C277.294 149.095 277.771 147.932 277.348 146.92L271.026 131.79C270.603 130.778 269.44 130.3 268.427 130.723L246.898 139.72C245.886 140.143 245.408 141.306 245.831 142.318L252.154 157.448C252.577 158.46 253.74 158.938 254.752 158.515Z" fill="white" stroke="#263238" stroke-miterlimit="10"/>
<path d="M209.723 140.222L264.912 117.158L263.741 114.357L208.552 137.421L209.723 140.222Z" fill="white" stroke="#263238" stroke-miterlimit="10"/>
<path d="M192.708 39.396V226.296C192.706 228.759 191.727 231.12 189.986 232.862C188.244 234.603 185.883 235.582 183.42 235.584H102.666C100.203 235.582 97.8416 234.603 96.1001 232.862C94.3586 231.12 93.3795 228.759 93.3779 226.296V39.39C93.3779 36.9283 94.3558 34.5674 96.0966 32.8267C97.8373 31.086 100.198 30.108 102.66 30.108H137.322V30.216C138.186 33.324 140.172 35.346 142.38 35.346H143.646C145.854 35.346 147.846 33.324 148.704 30.216L148.74 30.108H183.42C184.64 30.108 185.847 30.3483 186.974 30.815C188.101 31.2818 189.125 31.966 189.988 32.8284C190.85 33.6909 191.534 34.7148 192.001 35.8417C192.468 36.9685 192.708 38.1763 192.708 39.396Z" fill="white" stroke="#263238" stroke-linecap="round" stroke-linejoin="round"/>
<path d="M192.708 84.78V39.396C192.708 38.1763 192.468 36.9685 192.001 35.8417C191.534 34.7148 190.85 33.6909 189.988 32.8284C189.125 31.966 188.101 31.2818 186.974 30.815C185.847 30.3483 184.64 30.108 183.42 30.108H148.8L148.764 30.216C147.9 33.324 145.914 35.346 143.706 35.346H142.44C140.232 35.346 138.24 33.324 137.382 30.216V30.108H102.66C100.198 30.108 97.8373 31.086 96.0966 32.8267C94.3558 34.5674 93.3779 36.9283 93.3779 39.39V84.78H192.708Z" fill="#F7F0E8" stroke="#263238" stroke-miterlimit="10"/>
<path d="M172.092 145.254H113.37C110.189 145.254 107.61 147.833 107.61 151.014V169.284C107.61 172.465 110.189 175.044 113.37 175.044H172.092C175.273 175.044 177.852 172.465 177.852 169.284V151.014C177.852 147.833 175.273 145.254 172.092 145.254Z" fill="#F7F0E8" stroke="#263238" stroke-miterlimit="10"/>
<path d="M192.708 48.09V39.396C192.708 38.1763 192.468 36.9685 192.001 35.8417C191.534 34.7148 190.85 33.6909 189.988 32.8284C189.125 31.966 188.101 31.2818 186.974 30.815C185.847 30.3483 184.64 30.108 183.42 30.108H148.8L148.764 30.216C147.9 33.324 145.914 35.346 143.706 35.346H142.44C140.232 35.346 138.24 33.324 137.382 30.216V30.108H102.66C100.198 30.108 97.8373 31.086 96.0966 32.8267C94.3558 34.5674 93.3779 36.9283 93.3779 39.39V48.09H192.708Z" fill="#DBDBDB" stroke="#263238" stroke-linecap="round" stroke-linejoin="round"/>
<path d="M93.3779 224.832V226.296C93.3795 228.759 94.3586 231.12 96.1001 232.862C97.8416 234.603 100.203 235.582 102.666 235.584H183.42C185.883 235.582 188.244 234.603 189.986 232.862C191.727 231.12 192.706 228.759 192.708 226.296V224.832H93.3779Z" fill="#DBDBDB" stroke="#263238" stroke-linecap="round" stroke-linejoin="round"/>
<path d="M199.026 84.036V65.4H197.34V41.472C197.338 37.5648 195.785 33.8182 193.022 31.056C190.259 28.2937 186.511 26.742 182.604 26.742H103.482C99.5749 26.742 95.8277 28.2937 93.0643 31.056C90.3009 33.8182 88.7477 37.5648 88.7461 41.472V231.372C88.7477 235.279 90.3009 239.026 93.0643 241.788C95.8277 244.55 99.5749 246.102 103.482 246.102H182.604C186.511 246.102 190.259 244.55 193.022 241.788C195.785 239.026 197.338 235.279 197.34 231.372V99.972H199.026V88.914H197.34V84.036H199.026ZM192.708 220.836C192.708 224.743 191.156 228.49 188.394 231.254C185.632 234.017 181.885 235.57 177.978 235.572H108.108C104.201 235.57 100.454 234.017 97.692 231.254C94.9298 228.49 93.3781 224.743 93.3781 220.836V44.838C93.3781 40.9314 94.93 37.1847 97.6924 34.4223C100.455 31.6599 104.201 30.108 108.108 30.108H137.322V30.216C138.186 33.324 140.172 35.346 142.38 35.346H143.646C145.854 35.346 147.846 33.324 148.704 30.216L148.74 30.108H177.948C181.855 30.108 185.601 31.6599 188.364 34.4223C191.126 37.1847 192.678 40.9314 192.678 44.838L192.708 220.836Z" fill="#F7F0E8" stroke="#263238" stroke-linecap="round" stroke-linejoin="round"/>
<path d="M181.422 28.8H104.664C100.896 28.8 97.282 30.2969 94.6175 32.9614C91.953 35.6259 90.4561 39.2398 90.4561 43.008V229.866C90.4561 233.634 91.953 237.248 94.6175 239.913C97.282 242.577 100.896 244.074 104.664 244.074H181.422C185.19 244.074 188.804 242.577 191.469 239.913C194.133 237.248 195.63 233.634 195.63 229.866V42.978C195.622 39.215 194.122 35.6088 191.458 32.9508C188.794 30.2928 185.185 28.8 181.422 28.8ZM192.708 221.4C192.708 225.169 191.211 228.783 188.547 231.449C185.883 234.114 182.269 235.612 178.5 235.614H107.586C103.817 235.612 100.203 234.114 97.5391 231.449C94.8748 228.783 93.3781 225.169 93.3781 221.4V44.31C93.3781 42.445 93.7454 40.5982 94.4591 38.8751C95.1728 37.1521 96.219 35.5864 97.5377 34.2677C98.8565 32.9489 100.422 31.9028 102.145 31.189C103.868 30.4753 105.715 30.108 107.58 30.108H137.322V30.216C138.186 33.324 140.172 35.346 142.38 35.346H143.646C145.854 35.346 147.846 33.324 148.704 30.216L148.74 30.108H178.5C182.268 30.108 185.882 31.6049 188.547 34.2694C191.211 36.9339 192.708 40.5478 192.708 44.316V221.4Z" fill="#263238" stroke="#263238" stroke-linecap="round" stroke-linejoin="round"/>
<path d="M144.12 30.81C144.12 30.5356 144.039 30.2674 143.886 30.0394C143.734 29.8113 143.517 29.6337 143.263 29.5289C143.01 29.4242 142.731 29.3971 142.462 29.4511C142.193 29.5051 141.946 29.6377 141.752 29.8321C141.558 30.0265 141.427 30.274 141.374 30.5433C141.321 30.8126 141.35 31.0914 141.455 31.3446C141.561 31.5977 141.74 31.8138 141.968 31.9653C142.197 32.1169 142.466 32.1972 142.74 32.196C142.922 32.196 143.102 32.1601 143.27 32.0904C143.437 32.0207 143.59 31.9185 143.718 31.7897C143.846 31.6609 143.948 31.5081 144.017 31.3399C144.086 31.1718 144.121 30.9917 144.12 30.81Z" fill="white"/>
<path d="M102.204 36.114C102.204 37.512 100.632 38.016 100.626 39.114V39.186H102.15V39.6H100.116V39.204C100.116 37.704 101.688 37.404 101.688 36.108C101.688 35.628 101.532 35.376 101.148 35.376C100.764 35.376 100.602 35.652 100.602 36.06V36.474H100.116V36.12C100.116 35.412 100.44 34.92 101.16 34.92C101.88 34.92 102.204 35.4 102.204 36.114Z" fill="#263238"/>
<path d="M104.748 36.108V36.222C104.77 36.4215 104.727 36.6227 104.625 36.7957C104.524 36.9688 104.369 37.1043 104.184 37.182C104.37 37.259 104.525 37.3943 104.627 37.5675C104.729 37.7408 104.771 37.9424 104.748 38.142V38.502C104.748 39.21 104.412 39.702 103.698 39.702C102.984 39.702 102.66 39.24 102.66 38.502V38.178H103.14V38.532C103.14 38.952 103.314 39.204 103.686 39.204C104.058 39.204 104.232 38.958 104.232 38.484V38.13C104.232 37.668 104.034 37.452 103.632 37.44H103.356V36.972H103.662C103.742 36.9728 103.822 36.9562 103.895 36.9235C103.969 36.8907 104.034 36.8424 104.087 36.7821C104.14 36.7217 104.179 36.6506 104.202 36.5736C104.225 36.4966 104.231 36.4156 104.22 36.336V36.126C104.22 35.646 104.052 35.4 103.674 35.4C103.296 35.4 103.128 35.664 103.128 36.078V36.318H102.648V36.108C102.648 35.394 102.978 34.908 103.686 34.908C104.394 34.908 104.748 35.4 104.748 36.108Z" fill="#263238"/>
<path d="M105.75 36.456V37.098H105.252V36.456H105.75ZM105.75 38.982V39.6H105.252V39L105.75 38.982Z" fill="#263238"/>
<path d="M106.8 36.876C106.868 36.7542 106.969 36.6537 107.09 36.5859C107.212 36.518 107.351 36.4855 107.49 36.492C108.09 36.492 108.354 36.93 108.354 37.59V38.502C108.354 39.21 108.018 39.702 107.304 39.702C106.59 39.702 106.266 39.24 106.266 38.502V38.19H106.746V38.532C106.746 38.952 106.92 39.204 107.292 39.204C107.664 39.204 107.838 38.952 107.838 38.532V37.632C107.838 37.212 107.664 36.96 107.292 36.96C107.225 36.9576 107.158 36.9687 107.095 36.9925C107.032 37.0164 106.975 37.0526 106.926 37.099C106.878 37.1454 106.839 37.2011 106.812 37.2628C106.785 37.3244 106.771 37.3908 106.77 37.458V37.566H106.284L106.41 34.986H108.21V35.448H106.842L106.8 36.876Z" fill="#263238"/>
<path d="M110.928 36.096V36.186H110.442V36.066C110.442 35.646 110.274 35.4 109.896 35.4C109.518 35.4 109.332 35.652 109.332 36.15V37.2C109.385 37.0475 109.487 36.9164 109.621 36.8266C109.755 36.7367 109.915 36.693 110.076 36.702C110.676 36.702 110.94 37.134 110.94 37.8V38.508C110.94 39.216 110.592 39.708 109.878 39.708C109.164 39.708 108.81 39.246 108.81 38.508V36.108C108.81 35.37 109.146 34.908 109.878 34.908C110.61 34.908 110.928 35.4 110.928 36.096ZM109.332 37.836V38.532C109.332 38.952 109.5 39.204 109.878 39.204C110.256 39.204 110.43 38.952 110.43 38.532V37.836C110.43 37.416 110.25 37.164 109.878 37.164C109.506 37.164 109.332 37.416 109.332 37.836Z" fill="#263238"/>
<path d="M161.598 36.3H160.29V39.576H161.598V36.3Z" fill="#263238"/>
<path d="M163.344 35.646H162.036V39.576H163.344V35.646Z" fill="#263238"/>
<path d="M165.09 35.178H163.782V39.576H165.09V35.178Z" fill="#263238"/>
<path d="M166.842 34.368H165.534V39.576H166.842V34.368Z" fill="#263238"/>
<path d="M183.06 39.492H175.2V34.692H183.06V39.492ZM175.632 39.054H182.622V35.118H175.632V39.054Z" fill="#263238"/>
<path d="M180.438 35.598H176.286V38.58H180.438V35.598Z" fill="#263238"/>
<path d="M183.774 36.522H182.784V37.656H183.774V36.522Z" fill="#263238"/>
<path d="M172.314 38.442C172.261 38.443 172.209 38.4284 172.164 38.4C170.562 37.452 169.506 38.334 169.458 38.4C169.43 38.4258 169.396 38.4455 169.36 38.458C169.324 38.4705 169.286 38.4755 169.248 38.4727C169.209 38.4698 169.172 38.4593 169.138 38.4417C169.104 38.424 169.074 38.3996 169.05 38.37C169.023 38.3433 169.002 38.3115 168.987 38.2765C168.973 38.2414 168.965 38.2039 168.965 38.166C168.965 38.1281 168.973 38.0906 168.987 38.0556C169.002 38.0206 169.023 37.9888 169.05 37.962C169.11 37.908 170.46 36.762 172.44 37.926C172.507 37.9659 172.555 38.0306 172.574 38.106C172.593 38.1813 172.582 38.2611 172.542 38.328C172.516 38.3636 172.481 38.3924 172.442 38.4122C172.402 38.432 172.358 38.4422 172.314 38.442Z" fill="#263238"/>
<path d="M172.908 37.458C172.855 37.4598 172.802 37.4451 172.758 37.416C170.442 36.042 168.888 37.368 168.87 37.416C168.841 37.4416 168.807 37.4612 168.77 37.4737C168.733 37.4862 168.694 37.4914 168.656 37.4889C168.617 37.4864 168.579 37.4763 168.544 37.4591C168.51 37.442 168.478 37.4182 168.453 37.389C168.427 37.3599 168.408 37.3259 168.395 37.2892C168.383 37.2525 168.378 37.2136 168.38 37.1749C168.383 37.1362 168.393 37.0984 168.41 37.0635C168.427 37.0287 168.451 36.9976 168.48 36.972C168.48 36.972 170.376 35.352 173.058 36.972C173.123 37.013 173.171 37.0777 173.19 37.1525C173.209 37.2274 173.198 37.3068 173.16 37.374C173.127 37.4057 173.087 37.4297 173.043 37.4442C173 37.4587 172.953 37.4634 172.908 37.458Z" fill="#263238"/>
<path d="M173.442 36.312C173.389 36.3124 173.337 36.2978 173.292 36.27C170.364 34.53 168.414 36.168 168.33 36.24C168.303 36.2678 168.271 36.2899 168.235 36.3049C168.2 36.32 168.162 36.3278 168.123 36.3278C168.084 36.3278 168.046 36.32 168.011 36.3049C167.975 36.2899 167.943 36.2678 167.916 36.24C167.867 36.1814 167.843 36.1061 167.848 36.03C167.854 35.9538 167.889 35.8828 167.946 35.832C167.946 35.832 170.28 33.828 173.592 35.796C173.659 35.836 173.707 35.9006 173.726 35.976C173.745 36.0513 173.734 36.1312 173.694 36.198C173.665 36.2371 173.627 36.2681 173.583 36.288C173.539 36.308 173.49 36.3163 173.442 36.312Z" fill="#263238"/>
<path d="M171.432 38.934C171.433 39.0802 171.391 39.2235 171.311 39.3457C171.23 39.4678 171.115 39.5633 170.981 39.6201C170.846 39.6769 170.697 39.6924 170.554 39.6646C170.41 39.6368 170.278 39.567 170.174 39.464C170.071 39.361 170 39.2295 169.971 39.0862C169.942 38.9429 169.956 38.7942 170.012 38.659C170.067 38.5238 170.162 38.4082 170.283 38.3268C170.405 38.2455 170.548 38.202 170.694 38.202C170.889 38.202 171.076 38.279 171.214 38.4161C171.352 38.5532 171.43 38.7393 171.432 38.934Z" fill="#263238"/>
<path d="M128.405 124.98V102.83H129.824V124.98H128.405ZM133.181 109.475C133.077 108.598 132.656 107.917 131.917 107.433C131.179 106.948 130.274 106.706 129.201 106.706C128.416 106.706 127.73 106.833 127.141 107.087C126.559 107.341 126.103 107.689 125.774 108.134C125.451 108.578 125.29 109.083 125.29 109.648C125.29 110.121 125.402 110.527 125.627 110.868C125.858 111.202 126.152 111.482 126.51 111.707C126.867 111.926 127.242 112.108 127.635 112.252C128.027 112.391 128.387 112.503 128.716 112.59L130.516 113.074C130.977 113.195 131.491 113.363 132.056 113.576C132.627 113.789 133.172 114.081 133.691 114.45C134.216 114.813 134.649 115.281 134.989 115.852C135.329 116.423 135.5 117.124 135.5 117.954C135.5 118.912 135.249 119.777 134.747 120.55C134.251 121.323 133.524 121.937 132.566 122.393C131.615 122.849 130.458 123.076 129.097 123.076C127.828 123.076 126.729 122.872 125.8 122.462C124.877 122.053 124.151 121.481 123.62 120.749C123.095 120.016 122.798 119.165 122.729 118.196H124.944C125.001 118.866 125.226 119.419 125.619 119.858C126.017 120.29 126.518 120.613 127.124 120.827C127.735 121.034 128.393 121.138 129.097 121.138C129.916 121.138 130.651 121.006 131.303 120.74C131.955 120.469 132.471 120.094 132.852 119.615C133.233 119.131 133.423 118.566 133.423 117.92C133.423 117.331 133.259 116.852 132.93 116.483C132.601 116.114 132.168 115.814 131.632 115.583C131.096 115.353 130.516 115.151 129.893 114.978L127.712 114.355C126.328 113.957 125.232 113.389 124.425 112.65C123.617 111.912 123.213 110.946 123.213 109.752C123.213 108.76 123.481 107.894 124.018 107.156C124.56 106.412 125.287 105.835 126.198 105.425C127.115 105.01 128.139 104.802 129.27 104.802C130.412 104.802 131.427 105.007 132.316 105.417C133.204 105.821 133.908 106.374 134.427 107.078C134.952 107.782 135.228 108.581 135.257 109.475H133.181ZM144.392 123.007C143.204 123.007 142.154 122.797 141.243 122.376C140.337 121.949 139.63 121.363 139.123 120.619C138.615 119.869 138.364 119.016 138.37 118.058C138.364 117.308 138.511 116.616 138.811 115.981C139.111 115.341 139.521 114.808 140.04 114.381C140.565 113.948 141.15 113.674 141.796 113.559V113.455C140.948 113.236 140.274 112.76 139.772 112.027C139.27 111.289 139.022 110.45 139.028 109.509C139.022 108.61 139.25 107.805 139.711 107.095C140.173 106.386 140.807 105.826 141.615 105.417C142.428 105.007 143.354 104.802 144.392 104.802C145.419 104.802 146.336 105.007 147.144 105.417C147.951 105.826 148.586 106.386 149.047 107.095C149.514 107.805 149.751 108.61 149.757 109.509C149.751 110.45 149.494 111.289 148.987 112.027C148.485 112.76 147.818 113.236 146.988 113.455V113.559C147.628 113.674 148.205 113.948 148.718 114.381C149.232 114.808 149.641 115.341 149.947 115.981C150.253 116.616 150.408 117.308 150.414 118.058C150.408 119.016 150.149 119.869 149.635 120.619C149.128 121.363 148.421 121.949 147.516 122.376C146.616 122.797 145.575 123.007 144.392 123.007ZM144.392 121.104C145.194 121.104 145.886 120.974 146.469 120.714C147.051 120.455 147.501 120.088 147.818 119.615C148.136 119.142 148.297 118.589 148.303 117.954C148.297 117.285 148.124 116.694 147.784 116.18C147.444 115.667 146.979 115.263 146.391 114.969C145.808 114.675 145.142 114.528 144.392 114.528C143.636 114.528 142.962 114.675 142.367 114.969C141.779 115.263 141.315 115.667 140.974 116.18C140.64 116.694 140.475 117.285 140.481 117.954C140.475 118.589 140.628 119.142 140.94 119.615C141.257 120.088 141.71 120.455 142.298 120.714C142.887 120.974 143.585 121.104 144.392 121.104ZM144.392 112.693C145.027 112.693 145.589 112.567 146.079 112.313C146.575 112.059 146.965 111.704 147.247 111.249C147.53 110.793 147.674 110.259 147.68 109.648C147.674 109.048 147.533 108.526 147.256 108.082C146.979 107.632 146.596 107.286 146.105 107.043C145.615 106.795 145.044 106.671 144.392 106.671C143.729 106.671 143.149 106.795 142.653 107.043C142.157 107.286 141.773 107.632 141.502 108.082C141.231 108.526 141.098 109.048 141.104 109.648C141.098 110.259 141.234 110.793 141.511 111.249C141.794 111.704 142.183 112.059 142.679 112.313C143.175 112.567 143.746 112.693 144.392 112.693ZM159.51 123.007C158.206 123.007 157.096 122.652 156.179 121.943C155.262 121.228 154.561 120.192 154.076 118.837C153.592 117.475 153.35 115.831 153.35 113.905C153.35 111.99 153.592 110.354 154.076 108.999C154.567 107.638 155.27 106.599 156.188 105.884C157.11 105.163 158.218 104.802 159.51 104.802C160.802 104.802 161.907 105.163 162.824 105.884C163.747 106.599 164.451 107.638 164.935 108.999C165.425 110.354 165.671 111.99 165.671 113.905C165.671 115.831 165.428 117.475 164.944 118.837C164.459 120.192 163.758 121.228 162.841 121.943C161.924 122.652 160.814 123.007 159.51 123.007ZM159.51 121.104C160.802 121.104 161.806 120.481 162.521 119.235C163.236 117.989 163.594 116.212 163.594 113.905C163.594 112.37 163.43 111.064 163.101 109.985C162.778 108.907 162.311 108.085 161.699 107.519C161.093 106.954 160.364 106.671 159.51 106.671C158.23 106.671 157.229 107.303 156.508 108.566C155.787 109.824 155.426 111.603 155.426 113.905C155.426 115.439 155.588 116.743 155.911 117.816C156.234 118.889 156.698 119.705 157.304 120.264C157.915 120.824 158.651 121.104 159.51 121.104Z" fill="black"/>
<path d="M121.746 72.048V61.938H125.4V62.67H122.706V66.468H124.902V67.2H122.706V71.4H125.424V72.108L121.746 72.048Z" fill="black"/>
<path d="M126.384 68.34V67.62H129.03V68.34H126.384Z" fill="black"/>
<path d="M131.7 72.048L129.99 61.938H130.8L132.138 70.152L133.662 62.088H134.448L136.008 70.164L137.244 61.938H138.042L136.41 72.048H135.672L134.058 63.708L132.474 72.048H131.7Z" fill="black"/>
<path d="M138.432 72.048L140.568 61.938H141.564L143.712 72.048H142.8L142.302 69.342H139.902L139.392 72.048H138.432ZM140.004 68.652H142.152L141.066 63.198L140.004 68.652Z" fill="black"/>
<path d="M144.936 72.048V61.938H145.884V71.34H148.758V72.048H144.936Z" fill="black"/>
<path d="M149.706 72.048V61.938H150.654V71.34H153.528V72.048H149.706Z" fill="black"/>
<path d="M154.464 72.048V61.938H158.124V62.67H155.4V66.468H157.596V67.2H155.4V71.4H158.124V72.108L154.464 72.048Z" fill="black"/>
<path d="M160.692 72.048V62.67H158.784V61.938H163.488V62.67H161.64V72.048H160.692Z" fill="black"/>
<path d="M133.026 165V154.2H136.626C137.182 154.178 137.733 154.307 138.222 154.572C138.641 154.813 138.968 155.187 139.152 155.634C139.369 156.171 139.474 156.747 139.458 157.326C139.497 157.987 139.356 158.647 139.05 159.234C138.794 159.657 138.4 159.979 137.934 160.146C137.424 160.32 136.888 160.405 136.35 160.398H135.39V165H133.026ZM135.426 158.76H136.2C136.432 158.774 136.664 158.719 136.866 158.604C137.022 158.487 137.129 158.316 137.166 158.124C137.219 157.857 137.243 157.586 137.238 157.314C137.242 157.071 137.222 156.827 137.178 156.588C137.148 156.392 137.045 156.214 136.89 156.09C136.684 155.949 136.436 155.883 136.188 155.904H135.402L135.426 158.76Z" fill="#263238"/>
<path d="M139.47 165L141.504 154.2H144.216L146.226 165H144.03L143.676 162.726H142.092L141.72 165H139.47ZM142.302 161.298H143.448L142.848 157.098L142.302 161.298Z" fill="#263238"/>
<path d="M148.14 165V160.62L146.094 154.248H148.338L149.364 157.656L150.282 154.248H152.436L150.426 160.62V165H148.14Z" fill="#263238"/>
<path d="M87.7501 41.352C77.2021 36.6 66.3961 30.6 60.0661 20.532C58.6741 18.324 57.5941 16.146 56.9041 15.132C56.2141 16.176 55.1401 18.354 53.7481 20.532C47.4001 30.6 36.6001 36.6 26.0581 41.352C25.5901 41.568 18.0541 44.196 18.0601 44.274C18.0661 44.352 19.6501 83.274 31.6441 100.35C41.8861 114.918 53.6761 120.096 56.9041 121.296C60.1321 120.096 71.9041 114.918 82.1641 100.35C94.1641 83.292 95.7481 44.28 95.7481 44.274C95.7481 44.268 88.2001 41.568 87.7501 41.352Z" fill="#F7F0E8"/>
<path d="M84.4319 44.244C75.0179 40.008 65.3759 34.644 59.7239 25.644C58.4819 23.67 57.5159 21.726 56.9039 20.796C56.3039 21.726 55.3259 23.67 54.0839 25.644C48.4379 34.632 38.7899 40.008 29.3999 44.244C28.9799 44.43 22.2539 46.776 22.2539 46.848C22.2539 46.92 23.6759 81.648 34.3799 96.894C43.4999 109.89 53.9999 114.51 56.9039 115.584C59.7839 114.51 70.3079 109.89 79.4459 96.894C90.1499 81.672 91.5719 46.854 91.5719 46.848C91.5719 46.842 84.8459 44.43 84.4319 44.244Z" fill="white"/>
<path d="M57.1562 95.55C70.5469 95.55 81.4022 84.6947 81.4022 71.304C81.4022 57.9133 70.5469 47.058 57.1562 47.058C43.7655 47.058 32.9102 57.9133 32.9102 71.304C32.9102 84.6947 43.7655 95.55 57.1562 95.55Z" fill="#263238" stroke="#263238" stroke-linecap="round" stroke-linejoin="round"/>
<path d="M55.656 78.918H55.434C55.032 78.8847 54.6432 78.7591 54.2977 78.551C53.9522 78.3428 53.6594 78.0578 53.442 77.718L46.2 66.204C46.0018 65.9137 45.8642 65.5865 45.7953 65.2418C45.7265 64.8971 45.7278 64.5421 45.7991 64.198C45.8705 63.8538 46.0105 63.5276 46.2108 63.2387C46.411 62.9499 46.6675 62.7043 46.9647 62.5168C47.262 62.3292 47.594 62.2035 47.9409 62.1471C48.2879 62.0907 48.6426 62.1048 48.984 62.1885C49.3253 62.2723 49.6463 62.424 49.9277 62.6345C50.2092 62.8451 50.4453 63.1102 50.622 63.414L56.022 71.982L70.956 55.314C71.1795 55.0399 71.4563 54.8139 71.7696 54.6498C72.0829 54.4856 72.4263 54.3867 72.7789 54.359C73.1315 54.3314 73.4861 54.3755 73.8212 54.4887C74.1563 54.602 74.4649 54.782 74.7284 55.0179C74.992 55.2539 75.2049 55.5408 75.3544 55.8613C75.5039 56.1819 75.5869 56.5295 75.5982 56.883C75.6096 57.2365 75.5491 57.5887 75.4205 57.9182C75.2919 58.2477 75.0978 58.5477 74.85 58.8L57.6 78.048C57.3556 78.3219 57.056 78.5409 56.721 78.6909C56.386 78.8408 56.023 78.9182 55.656 78.918Z" fill="#F7F0E8" stroke="#263238" stroke-miterlimit="10"/>
<path opacity="0.18" d="M64.656 73.8C50.9708 78.3271 39.0386 87.0104 30.522 98.64C30.888 99.24 31.26 99.798 31.644 100.344C41.886 114.912 53.676 120.09 56.904 121.29C60.132 120.09 71.904 114.912 82.164 100.344C88.98 90.654 92.436 73.872 94.164 61.188C87.348 65.058 77.796 69.492 64.656 73.8Z" fill="black"/>
<path d="M87.7501 41.352C77.2021 36.6 66.3961 30.6 60.0661 20.532C58.6741 18.324 57.5941 16.146 56.9041 15.132C56.2141 16.176 55.1401 18.354 53.7481 20.532C47.4001 30.6 36.6001 36.6 26.0581 41.352C25.5901 41.568 18.0541 44.196 18.0601 44.274C18.0661 44.352 19.6501 83.274 31.6441 100.35C41.8861 114.918 53.6761 120.096 56.9041 121.296C60.1321 120.096 71.9041 114.918 82.1641 100.35C94.1641 83.292 95.7481 44.28 95.7481 44.274C95.7481 44.268 88.2001 41.568 87.7501 41.352Z" stroke="#263238" stroke-miterlimit="10"/>
<path d="M67.2392 281.283C78.8799 269.642 78.8799 250.769 67.2392 239.128C55.5984 227.488 36.725 227.488 25.0843 239.128C13.4435 250.769 13.4435 269.642 25.0843 281.283C36.725 292.924 55.5984 292.924 67.2392 281.283Z" fill="white" stroke="#263238" stroke-miterlimit="10"/>
<path d="M51.8642 284.578C65.3254 281.428 73.6844 267.962 70.5345 254.501C67.3847 241.04 53.9188 232.681 40.4576 235.831C26.9964 238.98 18.6374 252.446 21.7873 265.908C24.9372 279.369 38.4031 287.728 51.8642 284.578Z" fill="white" stroke="#263238" stroke-miterlimit="10"/>
<path d="M51.3064 282.984L50.4604 279C47.4924 279.516 45.0924 279.042 43.2604 277.578C41.4284 276.114 40.0824 273.638 39.2224 270.15L45.0424 267.84C45.3238 269.037 45.7259 270.203 46.2424 271.32C46.5731 272.086 47.1087 272.746 47.7904 273.228C48.0922 273.414 48.4286 273.537 48.7791 273.589C49.1297 273.642 49.4873 273.623 49.8304 273.534C50.1916 273.499 50.5359 273.364 50.8251 273.145C51.1143 272.925 51.337 272.63 51.4684 272.292C51.6739 271.618 51.6987 270.902 51.5404 270.216C51.3069 268.909 50.6788 267.705 49.7404 266.766C48.7191 265.82 47.5772 265.013 46.3444 264.366L42.0364 262.008C41.0851 261.444 40.173 260.817 39.3064 260.13C38.4629 259.454 37.7371 258.643 37.1584 257.73C36.4995 256.646 36.0403 255.454 35.8024 254.208C35.2464 251.536 35.5724 249.28 36.7804 247.44C38.1246 245.526 40.1147 244.163 42.3844 243.6L41.5744 239.784L43.6324 239.346L44.4424 243.162C45.7813 242.903 47.1639 242.985 48.4624 243.402C49.5181 243.77 50.462 244.402 51.2044 245.238C51.9269 246.081 52.5194 247.028 52.9624 248.046C53.4096 249.051 53.7807 250.088 54.0724 251.148L48.1324 253.35C47.9164 252.412 47.6317 251.492 47.2804 250.596C47.0336 249.924 46.6208 249.325 46.0804 248.856C45.8169 248.663 45.5108 248.537 45.188 248.488C44.8652 248.439 44.5353 248.468 44.2264 248.574C43.8681 248.647 43.5331 248.806 43.2507 249.038C42.9683 249.271 42.7471 249.568 42.6064 249.906C42.3214 250.585 42.2543 251.335 42.4144 252.054C42.6021 253.199 43.1734 254.246 44.0344 255.024C44.8629 255.711 45.7436 256.333 46.6684 256.884L50.8684 259.212C51.9951 259.869 53.0683 260.613 54.0784 261.438C55.0945 262.276 55.982 263.258 56.7124 264.354C57.5016 265.579 58.0494 266.943 58.3264 268.374C58.6494 269.802 58.635 271.285 58.2844 272.706C57.9495 274.065 57.2552 275.308 56.2744 276.306C55.2151 277.36 53.9067 278.13 52.4704 278.544L53.3284 282.576L51.3064 282.984Z" fill="#263238"/>
<path d="M238.176 272.76C245.126 257.836 238.661 240.104 223.738 233.155C208.814 226.205 191.082 232.669 184.133 247.593C177.183 262.517 183.647 280.249 198.571 287.198C213.495 294.148 231.227 287.683 238.176 272.76Z" fill="white" stroke="#263238" stroke-miterlimit="10"/>
<path d="M217.114 284.504C230.544 281.223 238.771 267.676 235.489 254.246C232.208 240.817 218.661 232.59 205.231 235.871C191.802 239.152 183.575 252.699 186.856 266.129C190.137 279.559 203.684 287.786 217.114 284.504Z" fill="white" stroke="#263238" stroke-miterlimit="10"/>
<path d="M216.306 282.984L215.454 279C212.49 279.516 210.09 279.042 208.254 277.578C206.418 276.114 205.07 273.638 204.21 270.15L210.036 267.84C210.315 269.038 210.717 270.205 211.236 271.32C211.565 272.087 212.101 272.748 212.784 273.228C213.085 273.414 213.42 273.537 213.77 273.59C214.119 273.642 214.476 273.623 214.818 273.534C215.18 273.501 215.525 273.367 215.815 273.147C216.104 272.928 216.327 272.631 216.456 272.292C216.667 271.619 216.693 270.903 216.534 270.216C216.298 268.91 215.67 267.707 214.734 266.766C213.712 265.821 212.57 265.014 211.338 264.366L207.024 262.008C206.075 261.444 205.165 260.817 204.3 260.13C203.455 259.456 202.729 258.644 202.152 257.73C201.493 256.646 201.034 255.454 200.796 254.208C200.224 251.524 200.542 249.27 201.75 247.446C203.094 245.526 205.086 244.156 207.36 243.588L206.55 239.772L208.608 239.334L209.418 243.15C210.755 242.891 212.136 242.973 213.432 243.39C214.489 243.757 215.433 244.389 216.174 245.226C216.901 246.068 217.495 247.014 217.938 248.034C218.384 249.039 218.753 250.076 219.042 251.136L213.108 253.338C212.89 252.401 212.605 251.481 212.256 250.584C212.009 249.912 211.596 249.314 211.056 248.844C210.794 248.651 210.489 248.525 210.167 248.476C209.845 248.427 209.516 248.456 209.208 248.562C208.85 248.635 208.515 248.794 208.233 249.026C207.95 249.259 207.729 249.557 207.588 249.894C207.3 250.572 207.233 251.324 207.396 252.042C207.58 253.187 208.149 254.235 209.01 255.012C209.84 255.698 210.72 256.32 211.644 256.872L215.844 259.2C216.972 259.855 218.045 260.6 219.054 261.426C220.072 262.262 220.96 263.245 221.688 264.342C222.479 265.567 223.029 266.931 223.308 268.362C223.628 269.79 223.614 271.272 223.266 272.694C222.928 274.053 222.232 275.296 221.25 276.294C220.193 277.348 218.887 278.118 217.452 278.532L218.304 282.564L216.306 282.984Z" fill="#263238"/>
<path d="M286.488 217.686V216.048" stroke="#263238" stroke-miterlimit="10"/>
<path d="M287.916 214.158H237.804V217.818H287.916V214.158Z" fill="white" stroke="#263238" stroke-miterlimit="10"/>
<path d="M240.018 218.142V215.868" stroke="#263238" stroke-miterlimit="10"/>
<path d="M241.566 214.32V216.594" stroke="#263238" stroke-miterlimit="10"/>
<path d="M284.67 214.506V216.684" stroke="#263238" stroke-miterlimit="10"/>
<path d="M282.306 214.506V216.594" stroke="#263238" stroke-miterlimit="10"/>
<path d="M276.486 214.41V217.05" stroke="#263238" stroke-miterlimit="10"/>
<path d="M245.292 214.686V215.868" stroke="#263238" stroke-miterlimit="10"/>
<path d="M246.204 217.41V215.322" stroke="#263238" stroke-miterlimit="10"/>
<path d="M252.66 214.41V217.05" stroke="#263238" stroke-miterlimit="10"/>
<path d="M264.024 214.686V216.504" stroke="#263238" stroke-miterlimit="10"/>
<path d="M290.112 221.286V219.648" stroke="#263238" stroke-miterlimit="10"/>
<path d="M291.54 217.758H241.428V221.418H291.54V217.758Z" fill="white" stroke="#263238" stroke-miterlimit="10"/>
<path d="M243.642 221.736V219.462" stroke="#263238" stroke-miterlimit="10"/>
<path d="M245.19 217.92V220.194" stroke="#263238" stroke-miterlimit="10"/>
<path d="M288.288 218.1V220.284" stroke="#263238" stroke-miterlimit="10"/>
<path d="M285.924 218.1V220.194" stroke="#263238" stroke-miterlimit="10"/>
<path d="M280.104 218.01V220.65" stroke="#263238" stroke-miterlimit="10"/>
<path d="M248.916 218.28V219.462" stroke="#263238" stroke-miterlimit="10"/>
<path d="M249.828 221.01V218.922" stroke="#263238" stroke-miterlimit="10"/>
<path d="M256.284 218.01V220.65" stroke="#263238" stroke-miterlimit="10"/>
<path d="M267.648 218.28V220.104" stroke="#263238" stroke-miterlimit="10"/>
<path d="M288.84 224.88V223.242" stroke="#263238" stroke-miterlimit="10"/>
<path d="M290.268 221.352H240.156V225.012H290.268V221.352Z" fill="white" stroke="#263238" stroke-miterlimit="10"/>
<path d="M242.37 225.336V223.062" stroke="#263238" stroke-miterlimit="10"/>
<path d="M243.918 221.52V223.788" stroke="#263238" stroke-miterlimit="10"/>
<path d="M287.022 221.7V223.884" stroke="#263238" stroke-miterlimit="10"/>
<path d="M284.652 221.7V223.788" stroke="#263238" stroke-miterlimit="10"/>
<path d="M278.838 221.61V224.244" stroke="#263238" stroke-miterlimit="10"/>
<path d="M247.644 221.88V223.062" stroke="#263238" stroke-miterlimit="10"/>
<path d="M248.556 224.61V222.516" stroke="#263238" stroke-miterlimit="10"/>
<path d="M255.012 221.61V224.244" stroke="#263238" stroke-miterlimit="10"/>
<path d="M266.376 221.88V223.698" stroke="#263238" stroke-miterlimit="10"/>
<path d="M290.112 228.48V226.842" stroke="#263238" stroke-miterlimit="10"/>
<path d="M291.546 224.952H241.434V228.612H291.546V224.952Z" fill="white" stroke="#263238" stroke-miterlimit="10"/>
<path d="M243.648 228.936V226.662" stroke="#263238" stroke-miterlimit="10"/>
<path d="M245.196 225.114V227.388" stroke="#263238" stroke-miterlimit="10"/>
<path d="M288.294 225.3V227.478" stroke="#263238" stroke-miterlimit="10"/>
<path d="M285.93 225.3V227.388" stroke="#263238" stroke-miterlimit="10"/>
<path d="M280.11 225.204V227.844" stroke="#263238" stroke-miterlimit="10"/>
<path d="M248.922 225.48V226.662" stroke="#263238" stroke-miterlimit="10"/>
<path d="M249.834 228.204V226.116" stroke="#263238" stroke-miterlimit="10"/>
<path d="M256.29 225.204V227.844" stroke="#263238" stroke-miterlimit="10"/>
<path d="M267.654 225.48V227.298" stroke="#263238" stroke-miterlimit="10"/>
<path d="M286.488 232.08V230.442" stroke="#263238" stroke-miterlimit="10"/>
<path d="M287.916 228.552H237.804V232.212H287.916V228.552Z" fill="white" stroke="#263238" stroke-miterlimit="10"/>
<path d="M240.018 232.53V230.256" stroke="#263238" stroke-miterlimit="10"/>
<path d="M241.566 228.714V230.988" stroke="#263238" stroke-miterlimit="10"/>
<path d="M284.67 228.894V231.078" stroke="#263238" stroke-miterlimit="10"/>
<path d="M282.306 228.894V230.988" stroke="#263238" stroke-miterlimit="10"/>
<path d="M276.486 228.804V231.444" stroke="#263238" stroke-miterlimit="10"/>
<path d="M245.292 229.074V230.256" stroke="#263238" stroke-miterlimit="10"/>
<path d="M246.204 231.804V229.716" stroke="#263238" stroke-miterlimit="10"/>
<path d="M252.66 228.804V231.444" stroke="#263238" stroke-miterlimit="10"/>
<path d="M264.024 229.074V230.898" stroke="#263238" stroke-miterlimit="10"/>
<path d="M286.488 235.674V234.036" stroke="#263238" stroke-miterlimit="10"/>
<path d="M287.916 232.146H237.804V235.806H287.916V232.146Z" fill="white" stroke="#263238" stroke-miterlimit="10"/>
<path d="M240.018 236.13V233.856" stroke="#263238" stroke-miterlimit="10"/>
<path d="M241.566 232.308V234.582" stroke="#263238" stroke-miterlimit="10"/>
<path d="M284.67 232.494V234.678" stroke="#263238" stroke-miterlimit="10"/>
<path d="M282.306 232.494V234.582" stroke="#263238" stroke-miterlimit="10"/>
<path d="M276.486 232.404V235.038" stroke="#263238" stroke-miterlimit="10"/>
<path d="M245.292 232.674V233.856" stroke="#263238" stroke-miterlimit="10"/>
<path d="M246.204 235.404V233.31" stroke="#263238" stroke-miterlimit="10"/>
<path d="M252.66 232.404V235.038" stroke="#263238" stroke-miterlimit="10"/>
<path d="M264.024 232.674V234.492" stroke="#263238" stroke-miterlimit="10"/>
<path d="M286.488 239.274V237.636" stroke="#263238" stroke-miterlimit="10"/>
<path d="M287.916 235.746H237.804V239.406H287.916V235.746Z" fill="white" stroke="#263238" stroke-miterlimit="10"/>
<path d="M240.018 239.73V237.456" stroke="#263238" stroke-miterlimit="10"/>
<path d="M241.566 235.908V238.182" stroke="#263238" stroke-miterlimit="10"/>
<path d="M284.67 236.088V238.272" stroke="#263238" stroke-miterlimit="10"/>
<path d="M282.306 236.088V238.182" stroke="#263238" stroke-miterlimit="10"/>
<path d="M276.486 235.998V238.638" stroke="#263238" stroke-miterlimit="10"/>
<path d="M245.292 236.274V237.456" stroke="#263238" stroke-miterlimit="10"/>
<path d="M246.204 238.998V236.91" stroke="#263238" stroke-miterlimit="10"/>
<path d="M252.66 235.998V238.638" stroke="#263238" stroke-miterlimit="10"/>
<path d="M264.024 236.274V238.092" stroke="#263238" stroke-miterlimit="10"/>
<path d="M290.406 242.874V241.236" stroke="#263238" stroke-miterlimit="10"/>
<path d="M291.834 239.346H241.722V243.006H291.834V239.346Z" fill="white" stroke="#263238" stroke-miterlimit="10"/>
<path d="M243.942 243.324V241.05" stroke="#263238" stroke-miterlimit="10"/>
<path d="M245.484 239.508V241.782" stroke="#263238" stroke-miterlimit="10"/>
<path d="M288.588 239.688V241.872" stroke="#263238" stroke-miterlimit="10"/>
<path d="M286.224 239.688V241.782" stroke="#263238" stroke-miterlimit="10"/>
<path d="M280.404 239.598V242.232" stroke="#263238" stroke-miterlimit="10"/>
<path d="M249.216 239.868V241.05" stroke="#263238" stroke-miterlimit="10"/>
<path d="M250.122 242.598V240.51" stroke="#263238" stroke-miterlimit="10"/>
<path d="M256.578 239.598V242.232" stroke="#263238" stroke-miterlimit="10"/>
<path d="M267.948 239.868V241.692" stroke="#263238" stroke-miterlimit="10"/>
<path d="M291.774 246.468V244.83" stroke="#263238" stroke-miterlimit="10"/>
<path d="M293.208 242.94H243.096V246.6H293.208V242.94Z" fill="white" stroke="#263238" stroke-miterlimit="10"/>
<path d="M245.31 246.924V244.65" stroke="#263238" stroke-miterlimit="10"/>
<path d="M246.858 243.102V245.376" stroke="#263238" stroke-miterlimit="10"/>
<path d="M289.956 243.288V245.472" stroke="#263238" stroke-miterlimit="10"/>
<path d="M287.592 243.288V245.376" stroke="#263238" stroke-miterlimit="10"/>
<path d="M281.772 243.198V245.832" stroke="#263238" stroke-miterlimit="10"/>
<path d="M250.584 243.468V244.65" stroke="#263238" stroke-miterlimit="10"/>
<path d="M251.496 246.198V244.104" stroke="#263238" stroke-miterlimit="10"/>
<path d="M257.952 243.198V245.832" stroke="#263238" stroke-miterlimit="10"/>
<path d="M269.316 243.468V245.286" stroke="#263238" stroke-miterlimit="10"/>
<path d="M290.118 250.068V248.43" stroke="#263238" stroke-miterlimit="10"/>
<path d="M291.546 246.54H241.434V250.2H291.546V246.54Z" fill="white" stroke="#263238" stroke-miterlimit="10"/>
<path d="M243.654 250.524V248.25" stroke="#263238" stroke-miterlimit="10"/>
<path d="M245.196 246.702V248.976" stroke="#263238" stroke-miterlimit="10"/>
<path d="M288.3 246.882V249.066" stroke="#263238" stroke-miterlimit="10"/>
<path d="M285.936 246.882V248.976" stroke="#263238" stroke-miterlimit="10"/>
<path d="M280.116 246.792V249.432" stroke="#263238" stroke-miterlimit="10"/>
<path d="M248.928 247.068V248.25" stroke="#263238" stroke-miterlimit="10"/>
<path d="M249.834 249.792V247.704" stroke="#263238" stroke-miterlimit="10"/>
<path d="M256.29 246.792V249.432" stroke="#263238" stroke-miterlimit="10"/>
<path d="M267.66 247.068V248.886" stroke="#263238" stroke-miterlimit="10"/>
<path d="M286.488 253.668V252.03" stroke="#263238" stroke-miterlimit="10"/>
<path d="M287.916 250.14H237.804V253.8H287.916V250.14Z" fill="white" stroke="#263238" stroke-miterlimit="10"/>
<path d="M240.018 254.118V251.844" stroke="#263238" stroke-miterlimit="10"/>
<path d="M241.566 250.302V252.576" stroke="#263238" stroke-miterlimit="10"/>
<path d="M284.67 250.482V252.666" stroke="#263238" stroke-miterlimit="10"/>
<path d="M282.306 250.482V252.576" stroke="#263238" stroke-miterlimit="10"/>
<path d="M276.486 250.392V253.026" stroke="#263238" stroke-miterlimit="10"/>
<path d="M245.292 250.662V251.844" stroke="#263238" stroke-miterlimit="10"/>
<path d="M246.204 253.392V251.304" stroke="#263238" stroke-miterlimit="10"/>
<path d="M252.66 250.392V253.026" stroke="#263238" stroke-miterlimit="10"/>
<path d="M264.024 250.662V252.486" stroke="#263238" stroke-miterlimit="10"/>
<path d="M285.276 257.262V255.624" stroke="#263238" stroke-miterlimit="10"/>
<path d="M286.704 253.734H236.592V257.394H286.704V253.734Z" fill="white" stroke="#263238" stroke-miterlimit="10"/>
<path d="M238.812 257.718V255.444" stroke="#263238" stroke-miterlimit="10"/>
<path d="M240.354 253.896V256.17" stroke="#263238" stroke-miterlimit="10"/>
<path d="M283.458 254.082V256.26" stroke="#263238" stroke-miterlimit="10"/>
<path d="M281.094 254.082V256.17" stroke="#263238" stroke-miterlimit="10"/>
<path d="M275.274 253.992V256.626" stroke="#263238" stroke-miterlimit="10"/>
<path d="M244.086 254.262V255.444" stroke="#263238" stroke-miterlimit="10"/>
<path d="M244.992 256.992V254.898" stroke="#263238" stroke-miterlimit="10"/>
<path d="M251.448 253.992V256.626" stroke="#263238" stroke-miterlimit="10"/>
<path d="M262.818 254.262V256.08" stroke="#263238" stroke-miterlimit="10"/>
<path d="M285.036 260.862V259.224" stroke="#263238" stroke-miterlimit="10"/>
<path d="M286.464 257.334H236.352V260.994H286.464V257.334Z" fill="white" stroke="#263238" stroke-miterlimit="10"/>
<path d="M238.566 261.318V259.044" stroke="#263238" stroke-miterlimit="10"/>
<path d="M240.114 257.496V259.77" stroke="#263238" stroke-miterlimit="10"/>
<path d="M283.218 257.676V259.86" stroke="#263238" stroke-miterlimit="10"/>
<path d="M280.854 257.676V259.77" stroke="#263238" stroke-miterlimit="10"/>
<path d="M275.034 257.586V260.226" stroke="#263238" stroke-miterlimit="10"/>
<path d="M243.84 257.862V259.044" stroke="#263238" stroke-miterlimit="10"/>
<path d="M244.752 260.586V258.498" stroke="#263238" stroke-miterlimit="10"/>
<path d="M251.208 257.586V260.226" stroke="#263238" stroke-miterlimit="10"/>
<path d="M262.572 257.862V259.68" stroke="#263238" stroke-miterlimit="10"/>
<path d="M285.156 264.462V262.824" stroke="#263238" stroke-miterlimit="10"/>
<path d="M286.584 260.934H236.472V264.594H286.584V260.934Z" fill="white" stroke="#263238" stroke-miterlimit="10"/>
<path d="M238.692 264.912V262.638" stroke="#263238" stroke-miterlimit="10"/>
<path d="M240.234 261.096V263.37" stroke="#263238" stroke-miterlimit="10"/>
<path d="M283.338 261.276V263.46" stroke="#263238" stroke-miterlimit="10"/>
<path d="M280.974 261.276V263.37" stroke="#263238" stroke-miterlimit="10"/>
<path d="M275.154 261.186V263.82" stroke="#263238" stroke-miterlimit="10"/>
<path d="M243.966 261.456V262.638" stroke="#263238" stroke-miterlimit="10"/>
<path d="M244.872 264.186V262.092" stroke="#263238" stroke-miterlimit="10"/>
<path d="M251.328 261.186V263.82" stroke="#263238" stroke-miterlimit="10"/>
<path d="M262.698 261.456V263.28" stroke="#263238" stroke-miterlimit="10"/>
<path d="M284.43 268.056V266.418" stroke="#263238" stroke-miterlimit="10"/>
<path d="M285.858 264.528H235.746V268.188H285.858V264.528Z" fill="white" stroke="#263238" stroke-miterlimit="10"/>
<path d="M237.966 268.512V266.238" stroke="#263238" stroke-miterlimit="10"/>
<path d="M239.508 264.69V266.964" stroke="#263238" stroke-miterlimit="10"/>
<path d="M282.612 264.876V267.054" stroke="#263238" stroke-miterlimit="10"/>
<path d="M280.248 264.876V266.964" stroke="#263238" stroke-miterlimit="10"/>
<path d="M274.428 264.786V267.42" stroke="#263238" stroke-miterlimit="10"/>
<path d="M243.24 265.056V266.238" stroke="#263238" stroke-miterlimit="10"/>
<path d="M244.146 267.786V265.692" stroke="#263238" stroke-miterlimit="10"/>
<path d="M250.602 264.786V267.42" stroke="#263238" stroke-miterlimit="10"/>
<path d="M261.972 265.056V266.874" stroke="#263238" stroke-miterlimit="10"/>
<path d="M284.55 271.656V270.018" stroke="#263238" stroke-miterlimit="10"/>
<path d="M285.978 268.128H235.866V271.788H285.978V268.128Z" fill="white" stroke="#263238" stroke-miterlimit="10"/>
<path d="M238.086 272.112V269.838" stroke="#263238" stroke-miterlimit="10"/>
<path d="M239.628 268.29V270.564" stroke="#263238" stroke-miterlimit="10"/>
<path d="M282.732 268.47V270.654" stroke="#263238" stroke-miterlimit="10"/>
<path d="M280.368 268.47V270.564" stroke="#263238" stroke-miterlimit="10"/>
<path d="M274.548 268.38V271.02" stroke="#263238" stroke-miterlimit="10"/>
<path d="M243.36 268.656V269.838" stroke="#263238" stroke-miterlimit="10"/>
<path d="M244.266 271.38V269.292" stroke="#263238" stroke-miterlimit="10"/>
<path d="M250.722 268.38V271.02" stroke="#263238" stroke-miterlimit="10"/>
<path d="M262.092 268.656V270.474" stroke="#263238" stroke-miterlimit="10"/>
<path d="M285.036 275.25V273.618" stroke="#263238" stroke-miterlimit="10"/>
<path d="M286.464 271.728H236.352V275.388H286.464V271.728Z" fill="white" stroke="#263238" stroke-miterlimit="10"/>
<path d="M238.566 275.706V273.432" stroke="#263238" stroke-miterlimit="10"/>
<path d="M240.114 271.89V274.164" stroke="#263238" stroke-miterlimit="10"/>
<path d="M283.218 272.07V274.254" stroke="#263238" stroke-miterlimit="10"/>
<path d="M280.854 272.07V274.164" stroke="#263238" stroke-miterlimit="10"/>
<path d="M275.034 271.98V274.614" stroke="#263238" stroke-miterlimit="10"/>
<path d="M243.84 272.25V273.432" stroke="#263238" stroke-miterlimit="10"/>
<path d="M244.752 274.98V272.886" stroke="#263238" stroke-miterlimit="10"/>
<path d="M251.208 271.98V274.614" stroke="#263238" stroke-miterlimit="10"/>
<path d="M262.572 272.25V274.068" stroke="#263238" stroke-miterlimit="10"/>
<path d="M285.156 278.85V277.212" stroke="#263238" stroke-miterlimit="10"/>
<path d="M286.584 275.322H236.472V278.982H286.584V275.322Z" fill="white" stroke="#263238" stroke-miterlimit="10"/>
<path d="M238.692 279.306V277.032" stroke="#263238" stroke-miterlimit="10"/>
<path d="M240.234 275.484V277.758" stroke="#263238" stroke-miterlimit="10"/>
<path d="M283.338 275.67V277.848" stroke="#263238" stroke-miterlimit="10"/>
<path d="M280.974 275.67V277.758" stroke="#263238" stroke-miterlimit="10"/>
<path d="M275.154 275.58V278.214" stroke="#263238" stroke-miterlimit="10"/>
<path d="M243.966 275.85V277.032" stroke="#263238" stroke-miterlimit="10"/>
<path d="M244.872 278.58V276.486" stroke="#263238" stroke-miterlimit="10"/>
<path d="M251.328 275.58V278.214" stroke="#263238" stroke-miterlimit="10"/>
<path d="M262.698 275.85V277.668" stroke="#263238" stroke-miterlimit="10"/>
<path d="M286.488 282.45V280.812" stroke="#263238" stroke-miterlimit="10"/>
<path d="M287.916 278.922H237.804V282.582H287.916V278.922Z" fill="white" stroke="#263238" stroke-miterlimit="10"/>
<path d="M240.018 282.906V280.632" stroke="#263238" stroke-miterlimit="10"/>
<path d="M241.566 279.084V281.358" stroke="#263238" stroke-miterlimit="10"/>
<path d="M284.67 279.264V281.448" stroke="#263238" stroke-miterlimit="10"/>
<path d="M282.306 279.264V281.358" stroke="#263238" stroke-miterlimit="10"/>
<path d="M276.486 279.174V281.814" stroke="#263238" stroke-miterlimit="10"/>
<path d="M245.292 279.45V280.632" stroke="#263238" stroke-miterlimit="10"/>
<path d="M246.204 282.174V280.086" stroke="#263238" stroke-miterlimit="10"/>
<path d="M252.66 279.174V281.814" stroke="#263238" stroke-miterlimit="10"/>
<path d="M264.024 279.45V281.268" stroke="#263238" stroke-miterlimit="10"/>
<path d="M286.488 286.044V284.412" stroke="#263238" stroke-miterlimit="10"/>
<path d="M287.916 282.516H237.804V286.17H287.916V282.516Z" fill="white" stroke="#263238" stroke-miterlimit="10"/>
<path d="M240.018 286.5V284.226" stroke="#263238" stroke-miterlimit="10"/>
<path d="M241.566 282.684V284.958" stroke="#263238" stroke-miterlimit="10"/>
<path d="M284.67 282.864V285.048" stroke="#263238" stroke-miterlimit="10"/>
<path d="M282.306 282.864V284.958" stroke="#263238" stroke-miterlimit="10"/>
<path d="M276.486 282.774V285.408" stroke="#263238" stroke-miterlimit="10"/>
<path d="M245.292 283.044V284.226" stroke="#263238" stroke-miterlimit="10"/>
<path d="M246.204 285.774V283.68" stroke="#263238" stroke-miterlimit="10"/>
<path d="M252.66 282.774V285.408" stroke="#263238" stroke-miterlimit="10"/>
<path d="M264.024 283.044V284.862" stroke="#263238" stroke-miterlimit="10"/>
<path d="M286.488 289.644V288.006" stroke="#263238" stroke-miterlimit="10"/>
<path d="M287.916 286.116H237.804V289.77H287.916V286.116Z" fill="white" stroke="#263238" stroke-miterlimit="10"/>
<path d="M240.018 290.1V287.826" stroke="#263238" stroke-miterlimit="10"/>
<path d="M241.566 286.278V288.552" stroke="#263238" stroke-miterlimit="10"/>
<path d="M284.67 286.464V288.642" stroke="#263238" stroke-miterlimit="10"/>
<path d="M282.306 286.464V288.552" stroke="#263238" stroke-miterlimit="10"/>
<path d="M276.486 286.374V289.008" stroke="#263238" stroke-miterlimit="10"/>
<path d="M245.292 286.644V287.826" stroke="#263238" stroke-miterlimit="10"/>
<path d="M246.204 289.374V287.28" stroke="#263238" stroke-miterlimit="10"/>
<path d="M252.66 286.374V289.008" stroke="#263238" stroke-miterlimit="10"/>
<path d="M264.024 286.644V288.462" stroke="#263238" stroke-miterlimit="10"/>
<path d="M133.326 184.602H113.652V235.494H133.326V184.602Z" fill="#263238" stroke="#263238" stroke-linecap="round" stroke-linejoin="round"/>
<path d="M179.28 192.648V192.048C179.28 190.072 178.495 188.176 177.097 186.779C175.7 185.381 173.804 184.596 171.828 184.596H113.628V184.668C115.421 184.9 117.069 185.777 118.262 187.135C119.456 188.493 120.114 190.24 120.114 192.048V205.008H120.246V280.908C120.246 282.084 120.478 283.249 120.928 284.336C121.378 285.423 122.038 286.41 122.87 287.242C123.701 288.074 124.689 288.734 125.776 289.184C126.863 289.634 128.028 289.866 129.204 289.866H179.268V192.666L179.28 192.648Z" fill="#DBDBDB" stroke="#263238" stroke-linecap="round" stroke-linejoin="round"/>
<path d="M139.872 276.558V282.42C139.87 284.09 139.307 285.712 138.274 287.024C137.24 288.336 135.796 289.263 134.172 289.656V289.872H159.882V276.558H139.872Z" fill="#263238" stroke="#263238" stroke-linecap="round" stroke-linejoin="round"/>
<path d="M143.88 269.46V282.42C143.878 284.227 143.22 285.971 142.028 287.328C140.836 288.686 139.191 289.564 137.4 289.8V289.866H189C189.979 289.866 190.948 289.673 191.852 289.299C192.756 288.924 193.577 288.375 194.269 287.683C194.961 286.991 195.51 286.17 195.885 285.266C196.259 284.362 196.452 283.393 196.452 282.414V269.46H143.88Z" fill="#DBDBDB" stroke="#263238" stroke-linecap="round" stroke-linejoin="round"/>
<path d="M131.718 194.736H170.496" stroke="#263238" stroke-miterlimit="10"/>
<path d="M131.718 201.804H170.496" stroke="#263238" stroke-miterlimit="10"/>
<path d="M131.718 207.804H170.496" stroke="#263238" stroke-miterlimit="10"/>
<path d="M131.718 249.582H170.496" stroke="#263238" stroke-miterlimit="10"/>
<path d="M131.718 259.872H170.496" stroke="#263238" stroke-miterlimit="10"/>
<path d="M131.718 214.02H154.86" stroke="#263238" stroke-miterlimit="10"/>
<path d="M131.718 219.588H154.86" stroke="#263238" stroke-miterlimit="10"/>
<path d="M131.718 225.156H154.86" stroke="#263238" stroke-miterlimit="10"/>
<path d="M131.718 230.73H154.86" stroke="#263238" stroke-miterlimit="10"/>
<path d="M131.718 236.298H154.86" stroke="#263238" stroke-miterlimit="10"/>
<path d="M131.718 241.872H154.86" stroke="#263238" stroke-miterlimit="10"/>
<path d="M77.2022 281.034C77.2022 281.034 79.8662 284.7 81.0302 285.198C82.1942 285.696 84.3602 286.032 85.0262 287.532C85.3961 288.26 85.6242 289.052 85.6982 289.866H69.2042C69.2042 289.866 68.5382 287.7 69.2042 286.368C69.6148 285.527 69.896 284.629 70.0382 283.704L77.2022 281.034Z" fill="white" stroke="#263238" stroke-linecap="round" stroke-linejoin="round"/>
<path d="M68.9219 288.198H85.2959C85.5151 288.73 85.6507 289.293 85.6979 289.866H69.2039C69.05 289.322 68.9555 288.763 68.9219 288.198Z" fill="white" stroke="#263238" stroke-linecap="round" stroke-linejoin="round"/>
<path d="M59.5442 284.7L59.2142 290.028H51.2162C51.0294 289.029 51.0871 288 51.3842 287.028C51.8822 285.528 52.3862 284.196 52.3862 284.196L59.5442 284.7Z" fill="white" stroke="#263238" stroke-linecap="round" stroke-linejoin="round"/>
<path d="M59.2142 290.028H51.2162C51.0937 289.369 51.0755 288.695 51.1622 288.03H59.3402L59.2142 290.028Z" fill="white" stroke="#263238" stroke-linecap="round" stroke-linejoin="round"/>
<path d="M83.6937 203.4C83.6937 203.4 82.3617 220.722 82.0317 226.884C81.7017 233.046 77.2017 281.022 77.2017 281.022C77.2017 281.022 70.7037 285.024 69.8697 285.024C69.0357 285.024 68.0697 227.22 68.0697 227.22L59.5437 284.7C58.6267 284.994 57.674 285.161 56.7117 285.198C55.3797 285.198 52.3857 284.202 52.3857 284.202L55.1997 214.908V203.4C55.1997 203.4 71.9997 205.734 76.5177 205.068C78.9578 204.744 81.361 204.186 83.6937 203.4Z" fill="#263238" stroke="#263238" stroke-linecap="round" stroke-linejoin="round"/>
<path d="M63.3779 213.906L67.0379 216.738L68.0399 227.232" stroke="#808080" stroke-linecap="round" stroke-linejoin="round"/>
<path d="M61.866 133.032C61.866 133.032 68.658 132.18 70.656 134.502C72.654 136.824 73.056 141.324 74.442 142.404C75.828 143.484 76.602 142.14 77.22 143.544C77.838 144.948 76.83 146.682 76.83 146.682C76.83 146.682 76.998 153.444 76.23 153.768C75.462 154.092 72.03 154.098 72.03 154.098L72.588 156.876L63.996 157.236L63.246 154.332C63.246 154.332 56.712 150.54 54.948 147.666C53.184 144.792 53.604 138.426 55.368 136.2C57.132 133.974 61.866 133.032 61.866 133.032Z" fill="white" stroke="#263238" stroke-linecap="round" stroke-linejoin="round"/>
<path d="M76.8298 146.682C76.8298 146.682 72.8458 145.428 72.6298 146.022C72.4138 146.616 73.1038 154.2 73.1038 154.2C73.1038 154.2 75.9178 154.524 76.2298 153.768C76.5418 153.012 77.1418 152.082 76.8298 146.682ZM75.9898 153.048C75.7618 153.648 73.7458 153.396 73.7458 153.396C73.7458 153.396 73.2358 147.288 73.4038 146.796C73.5718 146.304 76.4038 147.33 76.4038 147.33C76.6498 151.692 76.1998 152.442 75.9898 153.048Z" fill="#263238"/>
<path d="M72.3901 142.074C72.6001 142.584 72.9361 142.926 73.1401 142.842C73.3441 142.758 73.3381 142.278 73.1401 141.768C72.9421 141.258 72.5941 140.916 72.3901 141C72.1861 141.084 72.1801 141.564 72.3901 142.074Z" fill="#263238"/>
<path d="M76.1458 147.774C75.7881 147.955 75.3749 147.994 74.9896 147.883C74.6043 147.772 74.2756 147.518 74.0698 147.174" stroke="#263238" stroke-linecap="round" stroke-linejoin="round"/>
<path d="M72.3182 139.71C72.3182 139.71 71.4482 139.236 71.3462 140.682" stroke="#263238" stroke-linecap="round" stroke-linejoin="round"/>
<path d="M55.3682 136.2C57.1322 133.98 61.8662 133.032 61.8662 133.032C61.8662 133.032 68.6582 132.18 70.6562 134.502C70.6562 134.502 66.9002 133.554 67.3862 135.156C67.8722 136.758 71.7662 139.206 70.4282 140.154C69.0902 141.102 67.5842 140.382 68.2082 141.786C68.8322 143.19 69.6122 144.564 68.9582 144.69C68.3042 144.816 66.4742 143.322 65.6942 143.646C64.9142 143.97 64.0262 146.358 64.7762 147.57C65.2806 148.313 66.0562 148.827 66.9362 149.004C66.9362 149.004 65.5982 152.502 64.4222 153.414C63.9126 153.817 63.2702 154.014 62.6222 153.966C60.9602 152.952 56.3642 150.006 54.9302 147.666C53.1842 144.792 53.6042 138.426 55.3682 136.2Z" fill="#263238" stroke="#263238" stroke-linecap="round" stroke-linejoin="round"/>
<path d="M54.942 161.778C54.942 161.778 50.1 164.946 48.798 167.364C47.496 169.782 44.328 192.492 43.956 194.916C43.584 197.34 49.266 214.374 49.266 214.374C49.266 214.374 48.798 218.274 49.266 220.374C49.734 222.474 51.12 223.698 51.822 223.818C52.524 223.938 53.118 221.82 53.118 221.82C53.586 222.288 54.174 221.7 54.174 221.118C54.174 220.536 54.528 216.318 54.408 215.718C54.288 215.118 53.766 213.18 53.766 213.18L54.966 198.252L54.942 161.778Z" fill="white" stroke="#263238" stroke-linecap="round" stroke-linejoin="round"/>
<path d="M44.3999 192.804C46.3606 193.602 48.4464 194.049 50.5619 194.124C53.6459 194.124 54.5219 193.686 54.5219 193.686L54.6719 189.726C54.6719 189.726 47.6279 189.726 46.8719 189.432C46.1159 189.138 44.8139 188.7 44.8139 188.7L44.3999 192.804Z" fill="#F7F0E8" stroke="#263238" stroke-linecap="round" stroke-linejoin="round"/>
<path d="M48.7981 167.364C47.7961 169.218 45.7081 182.964 44.5981 190.41C47.9275 191.486 51.4367 191.894 54.9241 191.61V161.778C54.9241 161.778 50.1001 164.946 48.7981 167.364Z" fill="#F7F0E8" stroke="#263238" stroke-linecap="round" stroke-linejoin="round"/>
<path d="M51.9482 181.86L47.7422 179.268" stroke="#263238" stroke-linecap="round" stroke-linejoin="round"/>
<path d="M49.3501 183.348L52.3141 182.976" stroke="#263238" stroke-linecap="round" stroke-linejoin="round"/>
<path d="M52.8779 216.198C52.7512 216.774 52.4666 217.304 52.0559 217.728L51.4559 218.196L51.1079 220.314C51.1079 220.314 51.3419 221.604 51.4559 222.306" stroke="#263238" stroke-linecap="round" stroke-linejoin="round"/>
<path d="M53.118 221.838L52.998 218.784" stroke="#263238" stroke-linecap="round" stroke-linejoin="round"/>
<path d="M52.764 188.946C52.536 180.714 50.73 173.796 50.592 172.446C50.436 170.856 50.028 166.812 53.028 163.29C54.5539 161.804 56.2981 160.559 58.2 159.6C59.262 159.282 60.078 159.132 60.078 159.132L59.544 158.964C60.4734 158.565 61.4298 158.232 62.406 157.968C64.908 157.302 71.568 156.966 73.566 158.802C73.566 158.802 79.338 160.602 82.176 162.666C83.6051 164.451 84.4996 166.604 84.756 168.876C85.056 172.182 85.644 188.166 85.86 194.202C85.908 195.57 86.016 196.92 86.184 198.276C86.562 201.276 87.048 211.572 87.048 211.572C87.048 211.572 80.73 213.756 70.566 213.426C60.402 213.096 54.204 210.486 54.204 210.486L52.71 209.694C52.71 209.694 52.71 199.932 52.71 198.294C52.728 195.096 52.8 189 52.764 188.946Z" fill="#F7F0E8" stroke="#263238" stroke-linecap="round" stroke-linejoin="round"/>
<path d="M70.7998 182.586C71.2473 183.405 71.776 184.177 72.3778 184.89L70.7998 182.586Z" fill="#F7F0E8"/>
<path d="M70.7998 182.586C71.2473 183.405 71.776 184.177 72.3778 184.89" stroke="#263238" stroke-linecap="round" stroke-linejoin="round"/>
<path d="M66.1558 169.536C67.0622 173.447 68.3359 177.264 69.9598 180.936L66.1558 169.536Z" fill="#F7F0E8"/>
<path d="M66.1558 169.536C67.0622 173.447 68.3359 177.264 69.9598 180.936" stroke="#263238" stroke-linecap="round" stroke-linejoin="round"/>
<path d="M66.5342 176.664C66.9362 177.432 67.3082 178.128 67.6022 178.662L66.5342 176.664Z" fill="#F7F0E8"/>
<path d="M66.5342 176.664C66.9362 177.432 67.3082 178.128 67.6022 178.662" stroke="#263238" stroke-linecap="round" stroke-linejoin="round"/>
<path d="M62.9639 169.68C62.9639 169.68 64.2359 172.224 65.5379 174.756L62.9639 169.68Z" fill="#F7F0E8"/>
<path d="M62.9639 169.68C62.9639 169.68 64.2359 172.224 65.5379 174.756" stroke="#263238" stroke-linecap="round" stroke-linejoin="round"/>
<path d="M77.5862 160.236C77.5862 160.236 75.1502 156.75 74.6522 156.42C74.1542 156.09 64.0502 155.016 61.8842 155.682C59.7182 156.348 58.2002 159.6 58.2002 159.6C58.2002 159.6 68.9222 158.898 77.5862 160.236Z" fill="white" stroke="#263238" stroke-linecap="round" stroke-linejoin="round"/>
<path d="M79.7221 178.11L89.4001 186.672C89.4001 186.672 94.6081 190.392 96.6601 189.672C98.4601 189.012 114.576 174.786 118.32 171.468L119.778 170.64C119.778 170.64 121.86 170.64 122.466 170.256C123.072 169.872 123.978 169.146 123.978 169.146H124.482C124.986 169.146 125.292 168.438 125.496 167.73C125.7 167.022 126.3 165.006 126.096 164.502C125.892 163.998 123.264 162.276 123.264 162.276C123.264 162.276 123.972 161.268 124.278 160.866C124.584 160.464 125.586 159.348 125.478 158.34C125.37 157.332 124.278 156.822 123.354 157.938C122.43 159.054 117.9 162.48 117.294 163.692C116.868 164.538 116.25 165.906 115.908 166.65L97.5721 176.808C97.5721 176.808 86.9581 164.34 85.8421 163.608C84.7261 162.876 76.4341 160.368 76.4341 160.368" fill="white"/>
<path d="M79.7221 178.11L89.4001 186.672C89.4001 186.672 94.6081 190.392 96.6601 189.672C98.4601 189.012 114.576 174.786 118.32 171.468L119.778 170.64C119.778 170.64 121.86 170.64 122.466 170.256C123.072 169.872 123.978 169.146 123.978 169.146H124.482C124.986 169.146 125.292 168.438 125.496 167.73C125.7 167.022 126.3 165.006 126.096 164.502C125.892 163.998 123.264 162.276 123.264 162.276C123.264 162.276 123.972 161.268 124.278 160.866C124.584 160.464 125.586 159.348 125.478 158.34C125.37 157.332 124.278 156.822 123.354 157.938C122.43 159.054 117.9 162.48 117.294 163.692C116.868 164.538 116.25 165.906 115.908 166.65L97.5721 176.808C97.5721 176.808 86.9581 164.34 85.8421 163.608C84.7261 162.876 76.4341 160.368 76.4341 160.368" stroke="#263238" stroke-linecap="round" stroke-linejoin="round"/>
<path d="M79.7221 178.11L89.4001 186.672C89.4001 186.672 94.6082 190.392 96.6602 189.672C97.3802 189.408 100.398 186.972 103.992 183.93C103.948 182.289 103.629 180.666 103.05 179.13C102.556 177.629 101.696 176.274 100.548 175.188L97.5901 176.826C97.5901 176.826 86.9762 164.358 85.8602 163.626C84.7442 162.894 76.4521 160.386 76.4521 160.386" fill="#F7F0E8"/>
<path d="M79.7221 178.11L89.4001 186.672C89.4001 186.672 94.6082 190.392 96.6602 189.672C97.3802 189.408 100.398 186.972 103.992 183.93C103.948 182.289 103.629 180.666 103.05 179.13C102.556 177.629 101.696 176.274 100.548 175.188L97.5901 176.826C97.5901 176.826 86.9762 164.358 85.8602 163.626C84.7442 162.894 76.4521 160.386 76.4521 160.386" stroke="#263238" stroke-linecap="round" stroke-linejoin="round"/>
<path d="M98.748 175.56C98.748 175.56 99.3 174.816 100.896 176.802C102.492 178.788 103.296 183.438 103.296 184.098C103.296 184.758 104.358 184.494 105.018 183.702C105.678 182.91 107.802 182.64 108.072 180.516C108.342 178.392 107.406 175.476 106.212 173.622C105.018 171.768 105.15 171.762 103.956 172.026C102.762 172.29 99.126 174.6 98.748 175.56Z" fill="#F7F0E8" stroke="#263238" stroke-linecap="round" stroke-linejoin="round"/>
<path d="M97.5962 176.802C97.5962 176.802 98.8262 178.524 98.3342 181.86L97.5962 176.802Z" fill="#F7F0E8"/>
<path d="M97.5962 176.802C97.5962 176.802 98.8262 178.524 98.3342 181.86" stroke="#263238" stroke-linecap="round" stroke-linejoin="round"/>
<path d="M99.6001 180.132C99.6001 180.132 100.092 181.368 99.1021 184.092L99.6001 180.132Z" fill="#F7F0E8"/>
<path d="M99.6001 180.132C99.6001 180.132 100.092 181.368 99.1021 184.092" stroke="#263238" stroke-linecap="round" stroke-linejoin="round"/>
<path d="M123.6 169.008C123.861 168.401 123.998 167.748 124.002 167.088L123.6 169.008Z" fill="white"/>
<path d="M123.6 169.008C123.861 168.401 123.998 167.748 124.002 167.088" stroke="#263238" stroke-linecap="round" stroke-linejoin="round"/>
<path d="M12.4741 290.028H289.578" stroke="#263238" stroke-miterlimit="10"/>
</g>
<defs>
<clipPath id="clip0_497_322">
<rect width="300" height="300" fill="white"/>
</clipPath>
</defs>
</svg>
