<svg width="500" height="500" viewBox="0 0 500 500" fill="none" xmlns="http://www.w3.org/2000/svg">
<path d="M165.19 59.92C165.19 59.92 89.4196 98.52 51.6296 158C13.8396 217.48 16.8296 294 62.7496 350.8C108.67 407.6 196.44 400.14 269.93 436.12C343.42 472.1 424.5 464.69 459.25 388.46C494 312.23 441.6 283.74 432.6 195.52C423.6 107.3 344.07 -21.88 165.19 59.92Z" fill="#3F2E3E"/>
<path opacity="0.7" d="M165.19 59.92C165.19 59.92 89.4196 98.52 51.6296 158C13.8396 217.48 16.8296 294 62.7496 350.8C108.67 407.6 196.44 400.14 269.93 436.12C343.42 472.1 424.5 464.69 459.25 388.46C494 312.23 441.6 283.74 432.6 195.52C423.6 107.3 344.07 -21.88 165.19 59.92Z" fill="white"/>
<path d="M388.25 405.73C388.25 405.73 345.67 331 355.5 311.94C365.33 292.88 390.43 327.15 390.43 327.15C390.43 327.15 368.6 257.45 380.61 227C392.62 196.55 413.36 227 414.45 248.55C415.54 270.1 410.08 306.85 410.08 306.85C410.08 306.85 418.82 230.85 439.56 253.62C460.3 276.39 413.36 352.47 413.36 352.47C413.36 352.47 445.02 334.73 443.92 357.54C442.82 380.35 405.72 400.63 405.72 400.63" fill="#3F2E3E"/>
<path d="M388.61 391.79C388.61 391.79 349.21 355.03 368.41 338.56C387.61 322.09 397.71 356.3 397.71 356.3C397.71 356.3 376.49 251.11 410.84 247.3C445.19 243.49 419.93 338.55 419.93 338.55C419.93 338.55 449.23 298 447.21 331C445.19 364 401.75 391.84 401.75 391.84" stroke="#0D090C" stroke-miterlimit="10"/>
<path d="M407.96 385.1L381.34 356.25" stroke="#0D090C" stroke-miterlimit="10"/>
<path d="M402.42 387.32L409.63 302.99" stroke="#0D090C" stroke-miterlimit="10"/>
<path d="M401.31 381.21L425.16 349.59" stroke="#0D090C" stroke-miterlimit="10"/>
<path d="M435.809 375.33H362.159L369.529 462.2H428.439L435.809 375.33Z" fill="#0D090C"/>
<path d="M154.65 274.59C145.074 269.892 135.176 265.881 125.03 262.59C110.41 258.09 93.1601 262.21 92.7801 267.08C92.4001 271.95 95.0001 269.72 98.4101 275C101.82 280.28 100.28 292.62 105.16 303.87C110.04 315.12 124.65 320.74 124.65 320.74L154.65 274.59Z" fill="#3F2E3E" stroke="#EFE1D1" stroke-linecap="round" stroke-linejoin="round"/>
<path opacity="0.3" d="M144.9 285.47C144.9 285.47 122.4 271.22 109.28 266.34C96.1602 261.46 95.4102 268.59 95.4102 268.59C97.5686 269.382 99.4209 270.837 100.702 272.747C101.983 274.656 102.626 276.922 102.54 279.22C102.54 287.64 106.75 305.08 116.98 308.68C127.21 312.28 144.9 285.47 144.9 285.47Z" fill="#0D090C"/>
<path d="M305.446 301.392C311.326 299.158 314.149 292.229 311.751 285.915C309.352 279.6 302.641 276.293 296.76 278.526C290.879 280.76 288.057 287.69 290.455 294.004C292.854 300.318 299.565 303.626 305.446 301.392Z" fill="#3F2E3E" stroke="#EFE1D1" stroke-linecap="round" stroke-linejoin="round"/>
<path d="M144.23 420.82L156.85 458.68C157.193 459.706 157.849 460.598 158.727 461.23C159.605 461.862 160.659 462.201 161.74 462.2H181.41C182.417 462.202 183.401 461.908 184.242 461.355C185.083 460.802 185.743 460.014 186.14 459.09L194.94 438.67" fill="#3F2E3E"/>
<mask id="mask0_512_254" style="mask-type:luminance" maskUnits="userSpaceOnUse" x="144" y="420" width="51" height="43">
<path d="M144.23 420.82L156.85 458.68C157.193 459.706 157.849 460.598 158.727 461.23C159.605 461.862 160.659 462.201 161.74 462.2H181.41C182.417 462.202 183.401 461.908 184.242 461.355C185.083 460.802 185.743 460.014 186.14 459.09L194.94 438.67" fill="white"/>
</mask>
<g mask="url(#mask0_512_254)">
<path opacity="0.3" d="M150.561 420.82L161.001 458.68C161.198 459.631 161.702 460.49 162.436 461.126C163.169 461.762 164.092 462.139 165.061 462.2H181.371C182.266 462.154 183.125 461.83 183.828 461.272C184.531 460.715 185.042 459.952 185.291 459.09L192.591 438.67" fill="#0D090C"/>
</g>
<path d="M144.23 420.82L156.85 458.68C157.193 459.706 157.849 460.598 158.727 461.23C159.605 461.862 160.659 462.201 161.74 462.2H181.41C182.417 462.202 183.401 461.908 184.242 461.355C185.083 460.802 185.743 460.014 186.14 459.09L194.94 438.67" stroke="#EFE1D1" stroke-linecap="round" stroke-linejoin="round"/>
<path d="M239.15 420.82L226.54 458.68C226.197 459.706 225.541 460.598 224.663 461.23C223.786 461.862 222.731 462.201 221.65 462.2H202C200.993 462.202 200.009 461.908 199.168 461.355C198.327 460.802 197.667 460.014 197.27 459.09L188.47 438.67" fill="#EFE1D1"/>
<path d="M239.15 420.82L226.54 458.68C226.197 459.706 225.541 460.598 224.663 461.23C223.786 461.862 222.731 462.201 221.65 462.2H202C200.993 462.202 200.009 461.908 199.168 461.355C198.327 460.802 197.667 460.014 197.27 459.09L188.47 438.67" stroke="#EFE1D1" stroke-linecap="round" stroke-linejoin="round"/>
<path d="M280.94 420.82L268.32 458.68C267.978 459.706 267.322 460.598 266.444 461.23C265.566 461.862 264.512 462.201 263.43 462.2H243.76C242.754 462.202 241.77 461.908 240.929 461.355C240.088 460.802 239.428 460.014 239.03 459.09L230.23 438.67" fill="#3F2E3E"/>
<mask id="mask1_512_254" style="mask-type:luminance" maskUnits="userSpaceOnUse" x="230" y="420" width="51" height="43">
<path d="M280.94 420.82L268.32 458.68C267.978 459.706 267.322 460.598 266.444 461.23C265.566 461.862 264.512 462.201 263.43 462.2H243.76C242.754 462.202 241.77 461.908 240.929 461.355C240.088 460.802 239.428 460.014 239.03 459.09L230.23 438.67" fill="white"/>
</mask>
<g mask="url(#mask1_512_254)">
<path opacity="0.3" d="M272 420.82L263.37 458.68C262.89 460.78 261.55 462.2 260.03 462.2H246.58C245.18 462.2 243.91 460.98 243.35 459.09L234.99 439.09" fill="#0D090C"/>
</g>
<path d="M280.94 420.82L268.32 458.68C267.978 459.706 267.322 460.598 266.444 461.23C265.566 461.862 264.512 462.201 263.43 462.2H243.76C242.754 462.202 241.77 461.908 240.929 461.355C240.088 460.802 239.428 460.014 239.03 459.09L230.23 438.67" stroke="#EFE1D1" stroke-linecap="round" stroke-linejoin="round"/>
<path d="M213.5 445.73C273.241 445.73 321.67 401.809 321.67 347.63C321.67 293.451 273.241 249.53 213.5 249.53C153.759 249.53 105.33 293.451 105.33 347.63C105.33 401.809 153.759 445.73 213.5 445.73Z" fill="#3F2E3E"/>
<mask id="mask2_512_254" style="mask-type:luminance" maskUnits="userSpaceOnUse" x="105" y="249" width="217" height="197">
<path d="M213.5 445.73C273.241 445.73 321.67 401.809 321.67 347.63C321.67 293.451 273.241 249.53 213.5 249.53C153.759 249.53 105.33 293.451 105.33 347.63C105.33 401.809 153.759 445.73 213.5 445.73Z" fill="white"/>
</mask>
<g mask="url(#mask2_512_254)">
<path opacity="0.3" d="M288 280.6C294.344 293.18 297.649 307.072 297.65 321.16C297.65 375.34 249.22 419.26 189.48 419.26C167.249 419.373 145.459 413.059 126.73 401.08C145.59 426.39 177.52 443.08 213.73 443.08C271.73 443.08 318.73 400.47 318.73 347.9C318.67 321.59 306.93 297.82 288 280.6Z" fill="#0D090C"/>
</g>
<path d="M213.5 445.73C273.241 445.73 321.67 401.809 321.67 347.63C321.67 293.451 273.241 249.53 213.5 249.53C153.759 249.53 105.33 293.451 105.33 347.63C105.33 401.809 153.759 445.73 213.5 445.73Z" stroke="#EFE1D1" stroke-linecap="round" stroke-linejoin="round"/>
<path d="M312.57 356.43C310.21 376.19 301.1 394.12 287.38 408.28" stroke="#3F2E3E" stroke-width="2" stroke-linecap="round" stroke-linejoin="round"/>
<path d="M310.78 326C312.376 332.618 313.182 339.402 313.18 346.21" stroke="#3F2E3E" stroke-width="2" stroke-linecap="round" stroke-linejoin="round"/>
<path d="M186.68 255.65C195.593 253.566 204.716 252.519 213.87 252.53C219.73 252.529 225.582 252.957 231.38 253.81" stroke="#EFE1D1" stroke-width="4" stroke-linecap="round" stroke-linejoin="round"/>
<path d="M234.72 324.13C234.72 324.13 245.22 317 245.6 303.88C245.98 290.76 228.72 271.64 214.85 263.76C200.98 255.88 190.85 257.39 190.48 263.01C190.11 268.63 185.23 275.01 183.36 285.88C181.49 296.75 180.73 312.88 195.36 318.13" fill="#3F2E3E"/>
<path d="M234.72 324.13C234.72 324.13 245.22 317 245.6 303.88C245.98 290.76 228.72 271.64 214.85 263.76C200.98 255.88 190.85 257.39 190.48 263.01C190.11 268.63 185.23 275.01 183.36 285.88C181.49 296.75 180.73 312.88 195.36 318.13" stroke="#EFE1D1" stroke-linecap="round" stroke-linejoin="round"/>
<path opacity="0.3" d="M212.13 319.92L214.28 320.24C223.5 321.57 226.74 315.55 226.47 306.51C226.1 293.76 209.23 266.76 202.1 263.01C194.97 259.26 192.73 264.51 192.73 264.51C192.73 264.51 193.73 265.18 190.22 276.83C188.6 282.21 182.57 300.97 188.54 309.29C193.82 316.64 203.63 318.65 212.13 319.92Z" fill="#0D090C"/>
<path opacity="0.3" d="M242 307H241.86C241.729 306.983 241.603 306.94 241.489 306.874C241.375 306.807 241.275 306.719 241.195 306.614C241.115 306.509 241.057 306.389 241.023 306.262C240.99 306.134 240.982 306.001 241 305.87C241.109 305.101 241.172 304.326 241.19 303.55C241.39 296.55 235.68 286.5 226.29 277.23C226.196 277.137 226.122 277.027 226.07 276.906C226.019 276.784 225.992 276.654 225.991 276.522C225.99 276.39 226.015 276.259 226.065 276.137C226.115 276.015 226.188 275.904 226.28 275.81C226.373 275.716 226.483 275.641 226.605 275.59C226.726 275.539 226.856 275.512 226.988 275.511C227.12 275.51 227.251 275.535 227.373 275.585C227.495 275.634 227.606 275.707 227.7 275.8C237.62 285.6 243.41 295.99 243.19 303.6C243.169 304.45 243.102 305.297 242.99 306.14C242.957 306.379 242.838 306.597 242.656 306.755C242.474 306.913 242.241 307 242 307Z" fill="#0D090C"/>
<path opacity="0.3" d="M236.62 319.06C236.43 319.061 236.245 319.008 236.085 318.907C235.924 318.806 235.796 318.662 235.714 318.492C235.632 318.321 235.601 318.131 235.623 317.943C235.645 317.755 235.72 317.577 235.84 317.43C237.488 315.411 238.804 313.143 239.74 310.71C239.834 310.462 240.023 310.262 240.264 310.153C240.506 310.044 240.782 310.036 241.03 310.13C241.278 310.224 241.478 310.413 241.587 310.655C241.696 310.897 241.704 311.172 241.61 311.42C240.599 314.053 239.175 316.507 237.39 318.69C237.297 318.805 237.179 318.897 237.046 318.961C236.913 319.025 236.767 319.059 236.62 319.06Z" fill="#0D090C"/>
<path opacity="0.3" d="M163.798 366.611C166.755 354.758 156.446 341.979 140.773 338.068C125.099 334.157 109.995 340.595 107.038 352.449C104.08 364.302 114.389 377.081 130.063 380.992C145.736 384.903 160.84 378.464 163.798 366.611Z" fill="#0D090C"/>
<path d="M162.39 364.459C165.348 352.605 155.039 339.826 139.365 335.915C123.692 332.005 108.588 338.443 105.63 350.296C102.673 362.149 112.982 374.929 128.655 378.839C144.329 382.75 159.433 376.312 162.39 364.459Z" fill="#3F2E3E" stroke="#EFE1D1" stroke-linecap="round" stroke-linejoin="round"/>
<path d="M125.18 353.8C125.36 356.48 124.33 358.74 122.89 358.8C121.45 358.86 120.12 356.8 119.89 354.12C119.66 351.44 120.74 349.17 122.19 349.12C123.64 349.07 125 351.11 125.18 353.8Z" stroke="#EFE1D1" stroke-linecap="round" stroke-linejoin="round"/>
<path d="M145 358.77C145.18 361.46 144.15 363.71 142.71 363.77C141.27 363.83 139.94 361.77 139.71 359.08C139.48 356.39 140.56 354.14 142.01 354.08C143.46 354.02 144.79 356.08 145 358.77Z" stroke="#EFE1D1" stroke-linecap="round" stroke-linejoin="round"/>
<path d="M177.71 365.72C177.499 367.645 177.049 369.536 176.37 371.35C170.63 386.86 149.85 393.57 129.32 386.89" stroke="#EFE1D1" stroke-width="3" stroke-linecap="round" stroke-linejoin="round"/>
<path d="M174.36 364.25H180.73" stroke="#EFE1D1" stroke-width="3" stroke-linecap="round" stroke-linejoin="round"/>
<path d="M133.78 322.73C133.08 325.64 131.29 327.73 129.78 327.35C128.27 326.97 127.61 324.35 128.32 321.41C129.03 318.47 130.81 316.41 132.32 316.78C133.83 317.15 134.49 319.81 133.78 322.73Z" fill="#EFE1D1" stroke="#EFE1D1" stroke-linecap="round" stroke-linejoin="round"/>
<path d="M152.223 326.75C152.926 323.83 152.274 321.167 150.765 320.803C149.257 320.44 147.463 322.513 146.759 325.434C146.055 328.355 146.707 331.017 148.216 331.381C149.725 331.744 151.519 329.671 152.223 326.75Z" fill="#EFE1D1" stroke="#EFE1D1" stroke-linecap="round" stroke-linejoin="round"/>
<path d="M179.76 433L190.76 459.1C191.155 460.034 191.816 460.83 192.66 461.39C193.505 461.951 194.496 462.25 195.51 462.25H215.51C216.514 462.249 217.496 461.955 218.336 461.404C219.176 460.854 219.838 460.07 220.24 459.15L232.24 431.42H231.72" fill="#3F2E3E"/>
<mask id="mask3_512_254" style="mask-type:luminance" maskUnits="userSpaceOnUse" x="179" y="431" width="54" height="32">
<path d="M179.76 433L190.76 459.1C191.155 460.034 191.816 460.83 192.66 461.39C193.505 461.951 194.496 462.25 195.51 462.25H215.51C216.514 462.249 217.496 461.955 218.336 461.404C219.176 460.854 219.838 460.07 220.24 459.15L232.24 431.42H231.72" fill="white"/>
</mask>
<g mask="url(#mask3_512_254)">
<path opacity="0.3" d="M203 429.67C196.66 429.67 189.28 430.5 183.31 429.12L193.59 459.05C193.834 459.919 194.345 460.69 195.049 461.255C195.754 461.82 196.618 462.15 197.52 462.2H214C214.891 462.151 215.744 461.826 216.443 461.271C217.141 460.715 217.65 459.957 217.9 459.1L227.85 428.57L223.85 429.12C211.16 430.5 211.49 429.67 203 429.67Z" fill="#0D090C"/>
</g>
<path d="M179.76 433L190.76 459.1C191.155 460.034 191.816 460.83 192.66 461.39C193.505 461.951 194.496 462.25 195.51 462.25H215.51C216.514 462.249 217.496 461.955 218.336 461.404C219.176 460.854 219.838 460.07 220.24 459.15L232.24 431.42H231.72" stroke="#EFE1D1" stroke-linecap="round" stroke-linejoin="round"/>
<path d="M379 26.44L323.69 106.13C323.69 106.13 318.96 117.41 313.14 125.78C307.32 134.15 291 142.52 291 142.52C291 142.52 289.55 158.16 284.82 163.62C280.09 169.08 269.9 165.81 269.9 165.81C269.9 165.81 265.53 170.54 260.8 172.72C256.07 174.9 241.52 166.9 241.52 166.9C241.52 166.9 254.61 181.09 256.43 185.82C258.25 190.55 261.53 194.55 255.71 198.92C249.89 203.29 243.33 197.1 243.33 197.1C243.33 197.1 246.25 206.56 237.88 208.38C229.51 210.2 220.39 192 216.75 185.82C213.11 179.64 202.56 156.34 200.75 155.25C198.94 154.16 196.39 148.34 200.03 142.88C203.67 137.42 229.49 102.49 232.4 100C235.31 97.51 291 84.3 291 84.3L312.11 26.08" fill="white"/>
<mask id="mask4_512_254" style="mask-type:luminance" maskUnits="userSpaceOnUse" x="198" y="26" width="181" height="183">
<path d="M379 26.44L323.69 106.13C323.69 106.13 318.96 117.41 313.14 125.78C307.32 134.15 291 142.52 291 142.52C291 142.52 289.55 158.16 284.82 163.62C280.09 169.08 269.9 165.81 269.9 165.81C269.9 165.81 265.53 170.54 260.8 172.72C256.07 174.9 241.52 166.9 241.52 166.9C241.52 166.9 254.61 181.09 256.43 185.82C258.25 190.55 261.53 194.55 255.71 198.92C249.89 203.29 243.33 197.1 243.33 197.1C243.33 197.1 246.25 206.56 237.88 208.38C229.51 210.2 220.39 192 216.75 185.82C213.11 179.64 202.56 156.34 200.75 155.25C198.94 154.16 196.39 148.34 200.03 142.88C203.67 137.42 229.49 102.49 232.4 100C235.31 97.51 291 84.3 291 84.3L312.11 26.08" fill="white"/>
</mask>
<g mask="url(#mask4_512_254)">
<path opacity="0.2" d="M318 107C318 107 312 125 305.5 128.5C299 132 262 141.5 247.5 139.5C233 137.5 225 132 225 132C225 132 217 142.5 213.5 146C211.063 148.263 208.162 149.97 205 151C205 151 222.4 194.71 234.91 208.24C235.882 208.54 236.914 208.588 237.91 208.38C246.28 206.56 243.36 197.1 243.36 197.1C243.36 197.1 249.91 203.28 255.74 198.92C261.57 194.56 258.28 190.55 256.46 185.82C254.64 181.09 241.5 166.9 241.5 166.9C241.5 166.9 256.05 174.9 260.78 172.72C265.51 170.54 269.88 165.8 269.88 165.8C269.88 165.8 280.07 169.08 284.8 163.62C289.53 158.16 290.98 142.52 290.98 142.52C290.98 142.52 307.35 134.15 313.18 125.78C319.01 117.41 323.73 106.13 323.73 106.13L346.52 73.3L318 107Z" fill="black"/>
</g>
<path d="M379 26.44L323.69 106.13C323.69 106.13 318.96 117.41 313.14 125.78C307.32 134.15 291 142.52 291 142.52C291 142.52 289.55 158.16 284.82 163.62C280.09 169.08 269.9 165.81 269.9 165.81C269.9 165.81 265.53 170.54 260.8 172.72C256.07 174.9 241.52 166.9 241.52 166.9C241.52 166.9 254.61 181.09 256.43 185.82C258.25 190.55 261.53 194.55 255.71 198.92C249.89 203.29 243.33 197.1 243.33 197.1C243.33 197.1 246.25 206.56 237.88 208.38C229.51 210.2 220.39 192 216.75 185.82C213.11 179.64 202.56 156.34 200.75 155.25C198.94 154.16 196.39 148.34 200.03 142.88C203.67 137.42 229.49 102.49 232.4 100C235.31 97.51 291 84.3 291 84.3L312.11 26.08" stroke="#0D090C" stroke-linecap="round" stroke-linejoin="round"/>
<path d="M189.83 238.94L191.28 244.4L213.84 238.94L234.95 183.63L221.12 178.9L189.83 238.94Z" fill="white" stroke="#0D090C" stroke-linecap="round" stroke-linejoin="round"/>
<path d="M196.74 165.44L228.03 177.09L212.75 246.22L176 234.94L196.74 165.44Z" fill="white" stroke="#0D090C" stroke-linecap="round" stroke-linejoin="round"/>
<path d="M177.23 230.81L209.84 240.4L224.03 178.9L195.46 169.72L177.23 230.81Z" fill="#3F2E3E" stroke="#0D090C" stroke-linecap="round" stroke-linejoin="round"/>
<path d="M195.33 184.93C193.911 184.554 192.428 184.486 190.98 184.73L182.46 213.28C183.693 214.482 185.21 215.352 186.87 215.81C193.55 217.65 200.87 212.22 203.21 203.69C205.55 195.16 202 186.76 195.33 184.93Z" fill="white" stroke="#0D090C" stroke-linecap="round" stroke-linejoin="round"/>
<path d="M194.12 189.66C194.077 189.641 194.042 189.607 194.02 189.566C193.998 189.524 193.991 189.476 194 189.43L194.38 187.95C194.403 187.888 194.412 187.821 194.405 187.755C194.399 187.688 194.377 187.624 194.343 187.568C194.308 187.511 194.261 187.463 194.205 187.427C194.149 187.391 194.086 187.368 194.02 187.36L192.43 186.98C192.367 186.955 192.3 186.944 192.233 186.95C192.166 186.955 192.101 186.976 192.044 187.011C191.987 187.046 191.938 187.094 191.903 187.151C191.867 187.208 191.846 187.273 191.84 187.34L191.53 188.87C191.518 188.916 191.491 188.956 191.452 188.983C191.414 189.011 191.367 189.024 191.32 189.02C190.778 188.965 190.232 188.965 189.69 189.02L186.78 198.79C189.05 201.15 192.59 202.33 192.12 204.31C191.85 205.43 190.83 206.31 189.04 205.91C188.665 205.86 188.306 205.73 187.987 205.529C187.667 205.327 187.395 205.06 187.188 204.744C186.981 204.428 186.845 204.071 186.788 203.698C186.731 203.324 186.756 202.943 186.86 202.58L186.95 202.18C187 201.96 186.87 201.78 186.56 201.71L185.95 201.56L184.22 207.34C184.915 207.972 185.727 208.461 186.61 208.78C186.655 208.8 186.691 208.835 186.713 208.878C186.735 208.922 186.741 208.972 186.73 209.02L186.37 210.29C186.342 210.352 186.33 210.42 186.334 210.488C186.339 210.556 186.36 210.621 186.395 210.679C186.43 210.737 186.479 210.786 186.538 210.821C186.596 210.856 186.662 210.876 186.73 210.88L188.38 211.28C188.438 211.311 188.502 211.328 188.568 211.33C188.633 211.332 188.699 211.319 188.758 211.292C188.818 211.265 188.871 211.225 188.913 211.174C188.955 211.123 188.984 211.064 189 211L189.27 209.74C189.285 209.693 189.314 209.653 189.354 209.624C189.393 209.595 189.441 209.58 189.49 209.58C193.01 209.95 195.4 208.22 196.14 205.14C196.72 202.68 195.89 200.59 193.32 198.62C190.97 196.84 188.49 195.96 188.92 194.14C189.22 192.88 190.37 192.3 191.92 192.67C192.303 192.732 192.669 192.876 192.992 193.092C193.314 193.309 193.586 193.593 193.788 193.924C193.991 194.256 194.119 194.628 194.164 195.014C194.209 195.4 194.17 195.791 194.05 196.16L193.98 196.44C193.98 196.61 194.08 196.76 194.39 196.84L197.32 197.54C197.382 197.563 197.449 197.572 197.515 197.565C197.581 197.559 197.645 197.538 197.702 197.503C197.759 197.468 197.807 197.421 197.843 197.365C197.879 197.309 197.902 197.246 197.91 197.18L198.13 196.25C198.8 193.32 197.39 190.83 194.12 189.66Z" fill="#0D090C"/>
<path d="M222.57 129.05C222.57 129.05 226.94 135.6 227.67 141.43C228.29 146.399 227.128 151.427 224.39 155.62C222.21 158.89 220.03 161.8 218.21 166.9C216.39 172 216.03 179.27 213.48 182.9C210.93 186.53 209.48 190.17 213.11 193.45C216.74 196.73 226.21 196.36 231.31 186.9C236.41 177.44 239.68 167.25 242.95 163.61C246.22 159.97 256.78 151.61 256.78 151.61C256.78 151.61 285.52 147.61 290.98 142.52C296.44 137.43 301.17 123.6 301.17 123.6" fill="white"/>
<mask id="mask5_512_254" style="mask-type:luminance" maskUnits="userSpaceOnUse" x="210" y="123" width="92" height="73">
<path d="M222.57 129.05C222.57 129.05 226.94 135.6 227.67 141.43C228.29 146.399 227.128 151.427 224.39 155.62C222.21 158.89 220.03 161.8 218.21 166.9C216.39 172 216.03 179.27 213.48 182.9C210.93 186.53 209.48 190.17 213.11 193.45C216.74 196.73 226.21 196.36 231.31 186.9C236.41 177.44 239.68 167.25 242.95 163.61C246.22 159.97 256.78 151.61 256.78 151.61C256.78 151.61 285.52 147.61 290.98 142.52C296.44 137.43 301.17 123.6 301.17 123.6" fill="white"/>
</mask>
<g mask="url(#mask5_512_254)">
<path opacity="0.2" d="M299 128.5C299 128.5 283.5 138.5 271.5 141.5C259.5 144.5 252 144.5 247.5 150.5C243 156.5 238.5 175.5 232.5 179C226.5 182.5 225.5 170 217 172.5L216.72 172.6C215.89 176.5 215.16 180.5 213.48 182.91C210.93 186.55 209.48 190.18 213.11 193.46C216.74 196.74 226.21 196.37 231.31 186.91C236.41 177.45 239.68 167.26 242.95 163.62C246.22 159.98 256.78 151.62 256.78 151.62C256.78 151.62 285.52 147.62 290.98 142.53C294.28 139.45 297.31 133.19 299.19 128.71L299 128.5Z" fill="black"/>
</g>
<path d="M222.57 129.05C222.57 129.05 226.94 135.6 227.67 141.43C228.29 146.399 227.128 151.427 224.39 155.62C222.21 158.89 220.03 161.8 218.21 166.9C216.39 172 216.03 179.27 213.48 182.9C210.93 186.53 209.48 190.17 213.11 193.45C216.74 196.73 226.21 196.36 231.31 186.9C236.41 177.44 239.68 167.25 242.95 163.61C246.22 159.97 256.78 151.61 256.78 151.61C256.78 151.61 285.52 147.61 290.98 142.52C296.44 137.43 301.17 123.6 301.17 123.6" stroke="#0D090C" stroke-linecap="round" stroke-linejoin="round"/>
<path d="M211.29 147.25C211.29 147.25 220.76 152.34 227.67 146.52" stroke="#0D090C" stroke-linecap="round" stroke-linejoin="round"/>
<path d="M243.31 197.1L234.95 181.09" stroke="#0D090C" stroke-linecap="round" stroke-linejoin="round"/>
<path d="M269.88 165.81C269.88 165.81 276.43 160.35 276.06 148.34" stroke="#0D090C" stroke-linecap="round" stroke-linejoin="round"/>
<path d="M71 462.2H467" stroke="#0D090C" stroke-linecap="round" stroke-linejoin="round"/>
<path d="M36 462.2H54" stroke="#0D090C" stroke-linecap="round" stroke-linejoin="round"/>
</svg>
